<?xml version="1.0" encoding="UTF-8" standalone="no"?>
<!-- Created with Inkscape (http://www.inkscape.org/) -->

<svg
   version="1.1"
   id="svg2"
   xml:space="preserve"
   width="585.33331"
   height="173.42667"
   viewBox="0 0 585.33331 173.42667"
   sodipodi:docname="aomedia-logo-rgb.svg"
   inkscape:version="1.1.1 (c3084ef, 2021-09-22)"
   inkscape:export-filename="/Users/cconcolato/oss_code/aomedia-artwork/aomedia/aomedia-logo-rgb-text.png"
   inkscape:export-xdpi="96"
   inkscape:export-ydpi="96"
   xmlns:inkscape="http://www.inkscape.org/namespaces/inkscape"
   xmlns:sodipodi="http://sodipodi.sourceforge.net/DTD/sodipodi-0.dtd"
   xmlns="http://www.w3.org/2000/svg"
   xmlns:svg="http://www.w3.org/2000/svg"
   xmlns:rdf="http://www.w3.org/1999/02/22-rdf-syntax-ns#"
   xmlns:cc="http://creativecommons.org/ns#"
   xmlns:dc="http://purl.org/dc/elements/1.1/"><metadata
     id="metadata8"><rdf:RDF><cc:Work
         rdf:about=""><dc:format>image/svg+xml</dc:format><dc:type
           rdf:resource="http://purl.org/dc/dcmitype/StillImage" /><dc:title /></cc:Work></rdf:RDF></metadata><defs
     id="defs6" /><sodipodi:namedview
     pagecolor="#ffffff"
     bordercolor="#666666"
     borderopacity="1"
     objecttolerance="10"
     gridtolerance="10"
     guidetolerance="10"
     inkscape:pageopacity="0"
     inkscape:pageshadow="2"
     inkscape:window-width="2560"
     inkscape:window-height="851"
     id="namedview4"
     showgrid="true"
     inkscape:zoom="1"
     inkscape:cx="525"
     inkscape:cy="67.5"
     inkscape:window-x="337"
     inkscape:window-y="98"
     inkscape:window-maximized="0"
     inkscape:current-layer="g10"
     showguides="true"
     inkscape:guide-bbox="true"
     inkscape:pagecheckerboard="0"><inkscape:grid
       type="xygrid"
       id="grid857"
       spacingx="100"
       spacingy="60.5" /></sodipodi:namedview><g
     id="g10"
     inkscape:groupmode="layer"
     inkscape:label="ink_ext_XXXXXX"
     transform="matrix(1.3333333,0,0,-1.3333333,0,173.42667)"><path
   inkscape:connector-curvature="0"
   id="path14"
   style="fill:#6a67ba;fill-opacity:1;fill-rule:nonzero;stroke:none;stroke-width:0.1"
   d="M 109.206,35.4738 54.6031,130.073 0.00117188,35.4738 Z" /><path
   inkscape:connector-curvature="0"
   id="path16"
   style="fill:#39b776;fill-opacity:1;fill-rule:nonzero;stroke:none;stroke-width:0.1"
   d="M 109.206,35.4738 88.6859,59.1242 75.0523,35.4738 Z" /><path
   inkscape:connector-curvature="0"
   id="path18"
   style="fill:#39b776;fill-opacity:1;fill-rule:nonzero;stroke:none;stroke-width:0.1"
   d="M 20.5199,59.1242 0,35.4738 h 34.1527 z" /><path
   inkscape:connector-curvature="0"
   id="path20"
   style="fill:#222e5c;fill-opacity:1;fill-rule:nonzero;stroke:none;stroke-width:0.1"
   d="M 54.6031,-0.00117188 88.6871,59.123 H 20.5203 Z" /><path
   inkscape:connector-curvature="0"
   id="path22"
   style="fill:#100f0d;fill-opacity:1;fill-rule:nonzero;stroke:none;stroke-width:0.1"
   d="m 130.017,97.106703 h 8.02 l -4.009,15.249397 z m 9.445,-6.2265 h -10.87 l -1.635,-6.2262 h -7.651 l 10.447,35.194097 h 8.496 l 10.5,-35.194097 h -7.652 l -1.635,6.2262" /><path
   inkscape:connector-curvature="0"
   id="path24"
   style="fill:#100f0d;fill-opacity:1;fill-rule:nonzero;stroke:none;stroke-width:0.1"
   d="m 152.813,119.8481 h 7.071 V 90.880203 h 11.819 v -6.2262 h -18.89 V 119.8481" /><path
   inkscape:connector-curvature="0"
   id="path26"
   style="fill:#100f0d;fill-opacity:1;fill-rule:nonzero;stroke:none;stroke-width:0.1"
   d="m 177.297,119.8481 h 7.07101 V 90.880203 h 11.819 v -6.2262 H 177.297 V 119.8481" /><path
   inkscape:connector-curvature="0"
   id="path28"
   style="fill:#100f0d;fill-opacity:1;fill-rule:nonzero;stroke:none;stroke-width:0.1"
   d="m 202.04501,119.8481 h 7.07 V 84.654003 h -7.07 V 119.8481" /><path
   inkscape:connector-curvature="0"
   id="path30"
   style="fill:#100f0d;fill-opacity:1;fill-rule:nonzero;stroke:none;stroke-width:0.1"
   d="m 224.68201,97.106703 h 8.021 l -4.01,15.249397 z m 9.446,-6.2265 h -10.871 l -1.634,-6.2262 h -7.652 l 10.448,35.194097 h 8.495 l 10.5,-35.194097 h -7.652 l -1.634,6.2262" /><path
   inkscape:connector-curvature="0"
   id="path32"
   style="fill:#100f0d;fill-opacity:1;fill-rule:nonzero;stroke:none;stroke-width:0.1"
   d="M 255.34101,105.4961 V 84.654003 h -7.071 V 119.8481 h 7.177 l 11.503,-20.103497 V 119.8481 h 7.123 V 84.654003 h -6.754 l -11.978,20.842097" /><path
   inkscape:connector-curvature="0"
   id="path34"
   style="fill:#100f0d;fill-opacity:1;fill-rule:nonzero;stroke:none;stroke-width:0.1"
   d="m 279.35001,102.2251 c 0,10.658 5.752,18.204 14.933,18.204 6.701,0 9.921,-4.38 11.766,-8.495 l -5.909,-2.533 c -1.056,2.796 -3.06,4.749 -5.857,4.749 -4.802,0 -7.704,-5.013 -7.704,-11.925 0,-6.912897 2.902,-11.925397 7.704,-11.925397 2.902,0 4.96,2.2168 5.91,5.1187 l 5.856,-2.5328 c -1.741,-4.2211 -4.96,-8.8648 -11.766,-8.8648 -9.181,0 -14.933,7.5453 -14.933,18.204297" /><path
   inkscape:connector-curvature="0"
   id="path36"
   style="fill:#100f0d;fill-opacity:1;fill-rule:nonzero;stroke:none;stroke-width:0.1"
   d="m 312.06601,119.8481 h 20.157 v -6.226 h -13.086 v -7.968 h 12.717 v -6.225497 h -12.717 v -8.5484 h 13.086 v -6.2262 h -20.157 V 119.8481" /><path
   inkscape:connector-curvature="0"
   id="path38"
   style="fill:#100f0d;fill-opacity:1;fill-rule:nonzero;stroke:none;stroke-width:0.1"
   d="m 352.11901,119.8481 h 20.156 v -6.226 h -13.086 v -7.968 h 12.717 v -6.225497 h -12.717 v -14.7746 h -7.07 V 119.8481" /><path
   inkscape:connector-curvature="0"
   id="path40"
   style="fill:#100f0d;fill-opacity:1;fill-rule:nonzero;stroke:none;stroke-width:0.1"
   d="m 391.695,114.1501 c -4.855,0 -7.493,-5.119 -7.493,-11.925 0,-6.753897 2.638,-11.925397 7.493,-11.925397 4.802,0 7.44,5.1715 7.44,11.925397 0,6.806 -2.638,11.925 -7.44,11.925 z m 0,6.279 c 9.181,0 14.668,-7.757 14.668,-18.204 0,-10.500797 -5.487,-18.204297 -14.668,-18.204297 -9.234,0 -14.72199,7.7035 -14.72199,18.204297 0,10.447 5.48799,18.204 14.72199,18.204" /><path
   inkscape:connector-curvature="0"
   id="path42"
   style="fill:#100f0d;fill-opacity:1;fill-rule:nonzero;stroke:none;stroke-width:0.1"
   d="m 422.247,113.6221 h -5.013 v -10.0255 h 5.013 c 2.744,0 4.537,1.9525 4.537,5.0125 0,3.061 -1.793,5.013 -4.537,5.013 z m -1.214,-16.252097 h -3.799 v -12.716 h -7.07 V 119.8481 h 13.138 c 6.437,0 10.711,-4.643 10.711,-11.134 0,-6.1199 -3.218,-9.127697 -6.12,-10.076897 l 6.385,-13.9832 h -7.863 l -5.382,12.716" /><path
   inkscape:connector-curvature="0"
   id="path44"
   style="fill:#100f0d;fill-opacity:1;fill-rule:nonzero;stroke:none;stroke-width:0.1"
   d="m 133.183,68.815703 c -4.855,0 -7.493,-5.1187 -7.493,-11.9254 0,-6.7539 2.638,-11.9238 7.493,-11.9238 4.802,0 7.439,5.1699 7.439,11.9238 0,6.8067 -2.637,11.9254 -7.439,11.9254 z m 0,6.2789 c 9.181,0 14.668,-7.7558 14.668,-18.2043 0,-10.5 -5.487,-18.2039 -14.668,-18.2039 -9.235,0 -14.721,7.7039 -14.721,18.2039 0,10.4485 5.486,18.2043 14.721,18.2043" /><path
   inkscape:connector-curvature="0"
   id="path46"
   style="fill:#100f0d;fill-opacity:1;fill-rule:nonzero;stroke:none;stroke-width:0.1"
   d="m 164.263,68.288403 h -5.065 v -10.0258 h 5.065 c 2.692,0 4.486,1.9519 4.486,5.0125 0,3.0605 -1.794,5.0133 -4.486,5.0133 z m -12.135,6.2257 h 12.98 c 7.229,0 10.87,-5.2234 10.87,-11.239 0,-6.0156 -3.641,-11.2383 -10.87,-11.2383 h -5.91 v -12.7168 h -7.07 v 35.1941" /><path
   inkscape:connector-curvature="0"
   id="path48"
   style="fill:#100f0d;fill-opacity:1;fill-rule:nonzero;stroke:none;stroke-width:0.1"
   d="m 180.14701,74.514103 h 20.157 v -6.2257 h -13.086 v -7.9684 h 12.717 v -6.2254 h -12.717 v -8.5488 h 13.086 v -6.2258 h -20.157 v 35.1941" /><path
   inkscape:connector-curvature="0"
   id="path50"
   style="fill:#100f0d;fill-opacity:1;fill-rule:nonzero;stroke:none;stroke-width:0.1"
   d="m 213.02201,60.163003 v -20.843 h -7.071 v 35.1941 h 7.177 l 11.503,-20.1031 v 20.1031 h 7.123 v -35.1941 h -6.754 l -11.978,20.843" /><path
   inkscape:connector-curvature="0"
   id="path52"
   style="fill:#100f0d;fill-opacity:1;fill-rule:nonzero;stroke:none;stroke-width:0.1"
   d="m 278.19001,62.061403 -7.915,-22.7414 h -2.743 l -7.81,22.7414 v -22.7414 h -7.071 v 35.1941 h 9.445 l 6.807,-19.6812 6.913,19.6812 h 9.393 v -35.1941 h -7.019 v 22.7414" /><path
   inkscape:connector-curvature="0"
   id="path54"
   style="fill:#100f0d;fill-opacity:1;fill-rule:nonzero;stroke:none;stroke-width:0.1"
   d="m 290.90901,74.514103 h 20.156 v -6.2257 h -13.086 v -7.9684 h 12.717 v -6.2254 h -12.717 v -8.5488 h 13.086 v -6.2258 h -20.156 v 35.1941" /><path
   inkscape:connector-curvature="0"
   id="path56"
   style="fill:#100f0d;fill-opacity:1;fill-rule:nonzero;stroke:none;stroke-width:0.1"
   d="m 329.16501,45.545803 c 5.222,0 8.073,4.5906 8.073,11.3445 0,6.966 -2.744,11.3981 -8.073,11.3981 h -4.275 v -22.7426 z m -11.346,28.9683 h 11.346 c 9.709,0 15.301,-7.3335 15.301,-17.6238 0,-10.3426 -5.54,-17.5703 -15.301,-17.5703 h -11.346 v 35.1941" /><path
   inkscape:connector-curvature="0"
   id="path58"
   style="fill:#100f0d;fill-opacity:1;fill-rule:nonzero;stroke:none;stroke-width:0.1"
   d="m 349.58701,74.514103 h 7.071 v -35.1941 h -7.071 v 35.1941" /><path
   inkscape:connector-curvature="0"
   id="path60"
   style="fill:#100f0d;fill-opacity:1;fill-rule:nonzero;stroke:none;stroke-width:0.1"
   d="m 372.75201,51.772403 h 8.01999 l -4.01099,15.2488 z m 9.44399,-6.2266 h -10.86899 l -1.636,-6.2258 h -7.65 l 10.448,35.1941 h 8.49399 l 10.501,-35.1941 h -7.652 l -1.636,6.2258" />









</g></svg>
