<?xml version="1.0" standalone="yes"?>

<svg version="1.1" viewBox="0.0 80.0 960.0 420.0" fill="none" stroke="none" stroke-linecap="square" stroke-miterlimit="10" xmlns="http://www.w3.org/2000/svg" xmlns:xlink="http://www.w3.org/1999/xlink"><clipPath id="p.0"><path d="m0 0l960.0 0l0 720.0l-960.0 0l0 -720.0z" clip-rule="nonzero"></path></clipPath><g clip-path="url(#p.0)"><path fill="#000000" fill-opacity="0.0" d="m0 0l960.0 0l0 720.0l-960.0 0z" fill-rule="evenodd"></path><path fill="#efefef" d="m247.30183 94.80577l378.6457 0l0 32.25197l-378.6457 0z" fill-rule="evenodd"></path><path stroke="#000000" stroke-width="1.0" stroke-linejoin="round" stroke-linecap="butt" d="m247.30183 94.80577l378.6457 0l0 32.25197l-378.6457 0z" fill-rule="evenodd"></path><path fill="#000000" d="m413.33038 114.67176l-1.046875 0l-0.484375 -1.53125l-2.921875 0l-0.5 1.53125l-1.0 0l2.34375 -7.015625l1.3125 0l2.296875 7.015625zm-1.8125 -2.390625l-1.1875 -3.75l-1.1875 3.75l2.375 0zm7.702606 -4.625l-2.390625 7.015625l-1.28125 0l-2.34375 -7.015625l1.078125 0l1.515625 4.734375l0.4375 1.375l0.4375 -1.375l1.515625 -4.734375l1.03125 0zm5.186981 7.015625l-4.40625 0l0 -0.875l1.796875 0l0 -5.125l-1.6875 0.921875l-0.34375 -0.796875l2.234375 -1.171875l0.828125 0l0 6.171875l1.578125 0l0 0.875zm11.717712 -1.90625q0 0.5 -0.203125 0.875q-0.203125 0.375 -0.578125 0.625q-0.359375 0.25 -0.875 0.375q-0.515625 0.125 -1.125 0.125q-0.28125 0 -0.5625 -0.03125q-0.28125 -0.015625 -0.53125 -0.046875q-0.25 -0.03125 -0.484375 -0.0625q-0.21875 -0.046875 -0.40625 -0.09375l0 -0.921875q0.40625 0.140625 0.90625 0.234375q0.5 0.078125 1.140625 0.078125q0.46875 0 0.78125 -0.0625q0.328125 -0.078125 0.53125 -0.21875q0.21875 -0.140625 0.3125 -0.34375q0.09375 -0.203125 0.09375 -0.46875q0 -0.28125 -0.15625 -0.484375q-0.15625 -0.203125 -0.421875 -0.359375q-0.25 -0.171875 -0.59375 -0.296875q-0.328125 -0.125 -0.671875 -0.265625q-0.34375 -0.140625 -0.671875 -0.296875q-0.328125 -0.171875 -0.59375 -0.390625q-0.25 -0.234375 -0.40625 -0.53125q-0.15625 -0.296875 -0.15625 -0.71875q0 -0.359375 0.140625 -0.703125q0.15625 -0.34375 0.46875 -0.609375q0.3125 -0.28125 0.8125 -0.4375q0.5 -0.171875 1.1875 -0.171875q0.171875 0 0.375 0.015625q0.21875 0.015625 0.421875 0.046875q0.21875 0.015625 0.421875 0.0625q0.21875 0.03125 0.390625 0.078125l0 0.859375q-0.421875 -0.125 -0.84375 -0.1875q-0.40625 -0.0625 -0.78125 -0.0625q-0.828125 0 -1.21875 0.28125q-0.375 0.28125 -0.375 0.734375q0 0.28125 0.15625 0.484375q0.15625 0.203125 0.40625 0.375q0.265625 0.15625 0.59375 0.296875q0.328125 0.125 0.671875 0.265625q0.34375 0.140625 0.671875 0.3125q0.328125 0.15625 0.578125 0.390625q0.265625 0.21875 0.421875 0.53125q0.171875 0.296875 0.171875 0.71875zm4.827606 1.90625l-0.03125 -0.71875q-0.4375 0.421875 -0.890625 0.625q-0.453125 0.1875 -0.953125 0.1875q-0.453125 0 -0.78125 -0.109375q-0.328125 -0.125 -0.546875 -0.328125q-0.21875 -0.203125 -0.3125 -0.484375q-0.09375 -0.28125 -0.09375 -0.609375q0 -0.8125 0.59375 -1.265625q0.609375 -0.46875 1.796875 -0.46875l1.109375 0l0 -0.46875q0 -0.484375 -0.3125 -0.765625q-0.296875 -0.28125 -0.921875 -0.28125q-0.453125 0 -0.90625 0.109375q-0.4375 0.09375 -0.90625 0.28125l0 -0.84375q0.171875 -0.0625 0.390625 -0.125q0.21875 -0.0625 0.453125 -0.109375q0.25 -0.0625 0.5 -0.078125q0.265625 -0.03125 0.546875 -0.03125q0.484375 0 0.875 0.109375q0.390625 0.09375 0.65625 0.328125q0.28125 0.21875 0.421875 0.546875q0.140625 0.328125 0.140625 0.78125l0 3.71875l-0.828125 0zm-0.109375 -2.453125l-1.1875 0q-0.34375 0 -0.59375 0.078125q-0.25 0.0625 -0.421875 0.1875q-0.15625 0.125 -0.234375 0.3125q-0.078125 0.171875 -0.078125 0.40625q0 0.15625 0.046875 0.296875q0.046875 0.140625 0.15625 0.25q0.109375 0.109375 0.28125 0.171875q0.171875 0.0625 0.421875 0.0625q0.3125 0 0.734375 -0.1875q0.421875 -0.203125 0.875 -0.625l0 -0.953125zm6.343231 2.453125l0 -3.875q0 -0.25 -0.015625 -0.40625q-0.015625 -0.171875 -0.0625 -0.265625q-0.03125 -0.09375 -0.09375 -0.125q-0.0625 -0.03125 -0.15625 -0.03125q-0.109375 0 -0.203125 0.0625q-0.09375 0.0625 -0.203125 0.203125q-0.09375 0.140625 -0.21875 0.390625q-0.125 0.234375 -0.296875 0.578125l0 3.46875l-0.859375 0l0 -3.765625q0 -0.296875 -0.015625 -0.484375q-0.015625 -0.1875 -0.0625 -0.28125q-0.046875 -0.109375 -0.109375 -0.140625q-0.0625 -0.03125 -0.15625 -0.03125q-0.09375 0 -0.1875 0.046875q-0.078125 0.046875 -0.1875 0.1875q-0.09375 0.140625 -0.234375 0.390625q-0.125 0.234375 -0.296875 0.609375l0 3.46875l-0.859375 0l0 -5.390625l0.71875 0l0.03125 1.03125q0.140625 -0.3125 0.265625 -0.53125q0.140625 -0.21875 0.28125 -0.34375q0.140625 -0.125 0.296875 -0.1875q0.15625 -0.0625 0.359375 -0.0625q0.4375 0 0.65625 0.28125q0.21875 0.28125 0.21875 0.875q0.140625 -0.28125 0.265625 -0.484375q0.125 -0.21875 0.265625 -0.359375q0.140625 -0.15625 0.3125 -0.234375q0.171875 -0.078125 0.390625 -0.078125q1.015625 0 1.015625 1.5625l0 3.921875l-0.859375 0zm6.624481 -2.796875q0 0.71875 -0.203125 1.265625q-0.203125 0.53125 -0.5625 0.890625q-0.34375 0.34375 -0.828125 0.53125q-0.484375 0.171875 -1.046875 0.171875q-0.265625 0 -0.515625 -0.03125q-0.25 -0.015625 -0.515625 -0.078125l0 2.25l-0.9375 0l0 -7.59375l0.828125 0l0.0625 0.90625q0.40625 -0.5625 0.859375 -0.78125q0.453125 -0.21875 0.984375 -0.21875q0.46875 0 0.8125 0.1875q0.359375 0.1875 0.59375 0.546875q0.234375 0.34375 0.34375 0.84375q0.125 0.5 0.125 1.109375zm-0.953125 0.046875q0 -0.421875 -0.0625 -0.78125q-0.0625 -0.359375 -0.203125 -0.609375q-0.125 -0.25 -0.34375 -0.390625q-0.203125 -0.140625 -0.5 -0.140625q-0.171875 0 -0.359375 0.0625q-0.171875 0.046875 -0.375 0.1875q-0.203125 0.125 -0.421875 0.34375q-0.203125 0.21875 -0.453125 0.53125l0 2.625q0.25 0.109375 0.53125 0.171875q0.296875 0.0625 0.5625 0.0625q0.765625 0 1.1875 -0.515625q0.4375 -0.515625 0.4375 -1.546875zm4.046356 -4.078125l-1.609375 0l0 -0.765625l2.546875 0l0 6.8125l1.609375 0l0 0.78125l-4.328125 0l0 -0.78125l1.78125 0l0 -6.046875zm8.577606 3.84375q0 0.203125 -0.015625 0.34375q0 0.125 -0.015625 0.25l-3.78125 0q0 0.828125 0.453125 1.265625q0.46875 0.4375 1.34375 0.4375q0.234375 0 0.46875 -0.015625q0.234375 -0.015625 0.453125 -0.046875q0.21875 -0.03125 0.421875 -0.0625q0.203125 -0.046875 0.375 -0.09375l0 0.765625q-0.375 0.109375 -0.859375 0.171875q-0.484375 0.0625 -1.0 0.0625q-0.6875 0 -1.1875 -0.1875q-0.5 -0.1875 -0.828125 -0.546875q-0.3125 -0.359375 -0.46875 -0.875q-0.15625 -0.515625 -0.15625 -1.171875q0 -0.5625 0.15625 -1.0625q0.171875 -0.515625 0.484375 -0.890625q0.3125 -0.390625 0.765625 -0.609375q0.46875 -0.234375 1.046875 -0.234375q0.5625 0 1.0 0.171875q0.4375 0.171875 0.734375 0.5q0.296875 0.328125 0.453125 0.796875q0.15625 0.453125 0.15625 1.03125zm-0.984375 -0.125q0.015625 -0.359375 -0.078125 -0.65625q-0.078125 -0.3125 -0.265625 -0.515625q-0.171875 -0.21875 -0.4375 -0.34375q-0.265625 -0.125 -0.625 -0.125q-0.296875 0 -0.5625 0.125q-0.25 0.125 -0.4375 0.34375q-0.171875 0.203125 -0.28125 0.515625q-0.109375 0.296875 -0.140625 0.65625l2.828125 0z" fill-rule="nonzero"></path><path fill="#efefef" d="m247.30183 127.56947l188.8189 0l0 30.677155l-188.8189 0z" fill-rule="evenodd"></path><path stroke="#000000" stroke-width="1.0" stroke-linejoin="round" stroke-linecap="butt" d="m247.30183 127.56947l188.8189 0l0 30.677155l-188.8189 0z" fill-rule="evenodd"></path><path fill="#000000" d="m335.74356 143.08556q0 0.953125 -0.21875 1.640625q-0.21875 0.6875 -0.609375 1.140625q-0.375 0.4375 -0.890625 0.65625q-0.5 0.21875 -1.0625 0.21875q-0.671875 0 -1.171875 -0.234375q-0.5 -0.25 -0.84375 -0.703125q-0.328125 -0.46875 -0.484375 -1.125q-0.15625 -0.671875 -0.15625 -1.5q0 -0.9375 0.21875 -1.625q0.21875 -0.6875 0.59375 -1.140625q0.375 -0.453125 0.875 -0.65625q0.515625 -0.21875 1.078125 -0.21875q0.671875 0 1.171875 0.25q0.515625 0.234375 0.84375 0.703125q0.328125 0.453125 0.484375 1.109375q0.171875 0.65625 0.171875 1.484375zm-0.984375 0.078125q0 -0.625 -0.09375 -1.125q-0.09375 -0.515625 -0.3125 -0.890625q-0.203125 -0.375 -0.546875 -0.578125q-0.328125 -0.203125 -0.78125 -0.203125q-0.453125 0 -0.78125 0.21875q-0.328125 0.21875 -0.546875 0.59375q-0.203125 0.375 -0.3125 0.875q-0.09375 0.5 -0.09375 1.0625q0 0.625 0.09375 1.140625q0.109375 0.515625 0.3125 0.890625q0.203125 0.359375 0.53125 0.5625q0.328125 0.203125 0.796875 0.203125q0.4375 0 0.765625 -0.21875q0.328125 -0.21875 0.546875 -0.59375q0.21875 -0.375 0.3125 -0.875q0.109375 -0.5 0.109375 -1.0625zm6.546356 1.390625q0 0.5 -0.203125 0.890625q-0.1875 0.390625 -0.546875 0.65625q-0.359375 0.265625 -0.875 0.40625q-0.515625 0.140625 -1.140625 0.140625l-1.84375 0l0 -7.015625l2.015625 0q2.34375 0 2.34375 1.703125q0 0.5625 -0.28125 0.984375q-0.265625 0.40625 -0.875 0.59375q0.28125 0.0625 0.53125 0.1875q0.265625 0.125 0.453125 0.328125q0.203125 0.203125 0.3125 0.484375q0.109375 0.28125 0.109375 0.640625zm-1.234375 -3.09375q0 -0.203125 -0.078125 -0.390625q-0.0625 -0.203125 -0.21875 -0.328125q-0.15625 -0.140625 -0.4375 -0.21875q-0.265625 -0.09375 -0.6875 -0.09375l-0.984375 0l0 2.203125l0.953125 0q0.328125 0 0.59375 -0.0625q0.265625 -0.078125 0.453125 -0.21875q0.1875 -0.15625 0.296875 -0.359375q0.109375 -0.21875 0.109375 -0.53125zm0.21875 3.125q0 -0.28125 -0.109375 -0.484375q-0.109375 -0.21875 -0.328125 -0.359375q-0.21875 -0.15625 -0.53125 -0.234375q-0.296875 -0.078125 -0.6875 -0.078125l-0.96875 0l0 2.40625l1.0 0q0.828125 0 1.21875 -0.296875q0.40625 -0.3125 0.40625 -0.953125zm6.890106 -0.375q0 0.578125 -0.171875 1.046875q-0.15625 0.46875 -0.484375 0.796875q-0.3125 0.328125 -0.765625 0.515625q-0.453125 0.171875 -1.0625 0.171875q-0.640625 0 -1.109375 -0.171875q-0.453125 -0.171875 -0.75 -0.484375q-0.28125 -0.3125 -0.421875 -0.75q-0.125 -0.4375 -0.125 -0.984375l0 -4.71875l0.96875 0l0 4.640625q0 0.421875 0.078125 0.734375q0.078125 0.296875 0.25 0.515625q0.171875 0.203125 0.453125 0.3125q0.28125 0.109375 0.703125 0.109375q0.75 0 1.109375 -0.4375q0.375 -0.4375 0.375 -1.25l0 -4.625l0.953125 0l0 4.578125zm5.749481 2.4375l-4.40625 0l0 -0.875l1.796875 0l0 -5.125l-1.6875 0.921875l-0.34375 -0.796875l2.234375 -1.171875l0.828125 0l0 6.171875l1.578125 0l0 0.875z" fill-rule="nonzero"></path><path fill="#efefef" d="m437.13647 127.56956l188.81891 0l0 30.677162l-188.81891 0z" fill-rule="evenodd"></path><path stroke="#000000" stroke-width="1.0" stroke-linejoin="round" stroke-linecap="butt" d="m437.13647 127.56956l188.81891 0l0 30.677162l-188.81891 0z" fill-rule="evenodd"></path><path fill="#000000" d="m525.57825 143.08563q0 0.953125 -0.21875 1.640625q-0.21875 0.6875 -0.609375 1.140625q-0.375 0.4375 -0.890625 0.65625q-0.5 0.21875 -1.0625 0.21875q-0.671875 0 -1.171875 -0.234375q-0.5 -0.25 -0.84375 -0.703125q-0.328125 -0.46875 -0.484375 -1.125q-0.15625 -0.671875 -0.15625 -1.5q0 -0.9375 0.21875 -1.625q0.21875 -0.6875 0.59375 -1.140625q0.375 -0.453125 0.875 -0.65625q0.515625 -0.21875 1.078125 -0.21875q0.671875 0 1.171875 0.25q0.515625 0.234375 0.84375 0.703125q0.328125 0.453125 0.484375 1.109375q0.171875 0.65625 0.171875 1.484375zm-0.984375 0.078125q0 -0.625 -0.09375 -1.125q-0.09375 -0.515625 -0.3125 -0.890625q-0.203125 -0.375 -0.546875 -0.578125q-0.328125 -0.203125 -0.78125 -0.203125q-0.453125 0 -0.78125 0.21875q-0.328125 0.21875 -0.546875 0.59375q-0.203125 0.375 -0.3125 0.875q-0.09375 0.5 -0.09375 1.0625q0 0.625 0.09375 1.140625q0.109375 0.515625 0.3125 0.890625q0.203125 0.359375 0.53125 0.5625q0.328125 0.203125 0.796875 0.203125q0.4375 0 0.765625 -0.21875q0.328125 -0.21875 0.546875 -0.59375q0.21875 -0.375 0.3125 -0.875q0.109375 -0.5 0.109375 -1.0625zm6.5463257 1.390625q0 0.5 -0.203125 0.890625q-0.1875 0.390625 -0.546875 0.65625q-0.359375 0.265625 -0.875 0.40625q-0.515625 0.140625 -1.140625 0.140625l-1.84375 0l0 -7.015625l2.015625 0q2.34375 0 2.34375 1.703125q0 0.5625 -0.28125 0.984375q-0.265625 0.40625 -0.875 0.59375q0.28125 0.0625 0.53125 0.1875q0.265625 0.125 0.453125 0.328125q0.203125 0.203125 0.3125 0.484375q0.109375 0.28125 0.109375 0.640625zm-1.234375 -3.09375q0 -0.203125 -0.078125 -0.390625q-0.0625 -0.203125 -0.21875 -0.328125q-0.15625 -0.140625 -0.4375 -0.21875q-0.265625 -0.09375 -0.6875 -0.09375l-0.984375 0l0 2.203125l0.953125 0q0.328125 0 0.59375 -0.0625q0.265625 -0.078125 0.453125 -0.21875q0.1875 -0.15625 0.296875 -0.359375q0.109375 -0.21875 0.109375 -0.53125zm0.21875 3.125q0 -0.28125 -0.109375 -0.484375q-0.109375 -0.21875 -0.328125 -0.359375q-0.21875 -0.15625 -0.53125 -0.234375q-0.296875 -0.078125 -0.6875 -0.078125l-0.96875 0l0 2.40625l1.0 0q0.828125 0 1.21875 -0.296875q0.40625 -0.3125 0.40625 -0.953125zm6.8901367 -0.375q0 0.578125 -0.171875 1.046875q-0.15625 0.46875 -0.484375 0.796875q-0.3125 0.328125 -0.765625 0.515625q-0.453125 0.171875 -1.0625 0.171875q-0.640625 0 -1.109375 -0.171875q-0.453125 -0.171875 -0.75 -0.484375q-0.28125 -0.3125 -0.421875 -0.75q-0.125 -0.4375 -0.125 -0.984375l0 -4.71875l0.96875 0l0 4.640625q0 0.421875 0.078125 0.734375q0.078125 0.296875 0.25 0.515625q0.171875 0.203125 0.453125 0.3125q0.28125 0.109375 0.703125 0.109375q0.75 0 1.109375 -0.4375q0.375 -0.4375 0.375 -1.25l0 -4.625l0.953125 0l0 4.578125zm5.8119507 2.4375l-4.625 0l0 -0.84375l1.8125 -1.796875q0.4375 -0.4375 0.71875 -0.765625q0.28125 -0.328125 0.4375 -0.59375q0.15625 -0.265625 0.203125 -0.5q0.0625 -0.234375 0.0625 -0.5q0 -0.265625 -0.078125 -0.5q-0.0625 -0.234375 -0.21875 -0.40625q-0.140625 -0.171875 -0.375 -0.28125q-0.21875 -0.109375 -0.546875 -0.109375q-0.4375 0 -0.8125 0.203125q-0.359375 0.203125 -0.671875 0.515625l-0.515625 -0.609375q0.40625 -0.421875 0.921875 -0.671875q0.515625 -0.25 1.203125 -0.25q0.46875 0 0.84375 0.140625q0.390625 0.125 0.671875 0.390625q0.28125 0.265625 0.421875 0.65625q0.15625 0.375 0.15625 0.84375q0 0.40625 -0.109375 0.75q-0.09375 0.34375 -0.3125 0.6875q-0.21875 0.34375 -0.546875 0.71875q-0.328125 0.359375 -0.78125 0.796875l-1.28125 1.234375l3.421875 0l0 0.890625z" fill-rule="nonzero"></path><path fill="#6aa84f" d="m247.30183 158.75853l94.17323 0l0 41.448822l-94.17323 0z" fill-rule="evenodd"></path><path stroke="#000000" stroke-width="1.0" stroke-linejoin="round" stroke-linecap="butt" d="m247.30183 158.75853l94.17323 0l0 41.448822l-94.17323 0z" fill-rule="evenodd"></path><path fill="#000000" d="m270.84418 179.66045q0 0.953125 -0.21875 1.640625q-0.21875 0.6875 -0.609375 1.140625q-0.375 0.4375 -0.890625 0.65625q-0.5 0.21875 -1.0625 0.21875q-0.671875 0 -1.171875 -0.234375q-0.5 -0.25 -0.84375 -0.703125q-0.328125 -0.46875 -0.484375 -1.125q-0.15625 -0.671875 -0.15625 -1.5q0 -0.9375 0.21875 -1.625q0.21875 -0.6875 0.59375 -1.140625q0.375 -0.453125 0.875 -0.65625q0.515625 -0.21875 1.078125 -0.21875q0.671875 0 1.171875 0.25q0.515625 0.234375 0.84375 0.703125q0.328125 0.453125 0.484375 1.109375q0.171875 0.65625 0.171875 1.484375zm-0.984375 0.078125q0 -0.625 -0.09375 -1.125q-0.09375 -0.515625 -0.3125 -0.890625q-0.203125 -0.375 -0.546875 -0.578125q-0.328125 -0.203125 -0.78125 -0.203125q-0.453125 0 -0.78125 0.21875q-0.328125 0.21875 -0.546875 0.59375q-0.203125 0.375 -0.3125 0.875q-0.09375 0.5 -0.09375 1.0625q0 0.625 0.09375 1.140625q0.109375 0.515625 0.3125 0.890625q0.203125 0.359375 0.53125 0.5625q0.328125 0.203125 0.796875 0.203125q0.4375 0 0.765625 -0.21875q0.328125 -0.21875 0.546875 -0.59375q0.21875 -0.375 0.3125 -0.875q0.109375 -0.5 0.109375 -1.0625zm6.546356 1.390625q0 0.5 -0.203125 0.890625q-0.1875 0.390625 -0.546875 0.65625q-0.359375 0.265625 -0.875 0.40625q-0.515625 0.140625 -1.140625 0.140625l-1.84375 0l0 -7.015625l2.015625 0q2.34375 0 2.34375 1.703125q0 0.5625 -0.28125 0.984375q-0.265625 0.40625 -0.875 0.59375q0.28125 0.0625 0.53125 0.1875q0.265625 0.125 0.453125 0.328125q0.203125 0.203125 0.3125 0.484375q0.109375 0.28125 0.109375 0.640625zm-1.234375 -3.09375q0 -0.203125 -0.078125 -0.390625q-0.0625 -0.203125 -0.21875 -0.328125q-0.15625 -0.140625 -0.4375 -0.21875q-0.265625 -0.09375 -0.6875 -0.09375l-0.984375 0l0 2.203125l0.953125 0q0.328125 0 0.59375 -0.0625q0.265625 -0.078125 0.453125 -0.21875q0.1875 -0.15625 0.296875 -0.359375q0.109375 -0.21875 0.109375 -0.53125zm0.21875 3.125q0 -0.28125 -0.109375 -0.484375q-0.109375 -0.21875 -0.328125 -0.359375q-0.21875 -0.15625 -0.53125 -0.234375q-0.296875 -0.078125 -0.6875 -0.078125l-0.96875 0l0 2.40625l1.0 0q0.828125 0 1.21875 -0.296875q0.40625 -0.3125 0.40625 -0.953125zm6.890106 -0.375q0 0.578125 -0.171875 1.046875q-0.15625 0.46875 -0.484375 0.796875q-0.3125 0.328125 -0.765625 0.515625q-0.453125 0.171875 -1.0625 0.171875q-0.640625 0 -1.109375 -0.171875q-0.453125 -0.171875 -0.75 -0.484375q-0.28125 -0.3125 -0.421875 -0.75q-0.125 -0.4375 -0.125 -0.984375l0 -4.71875l0.96875 0l0 4.640625q0 0.421875 0.078125 0.734375q0.078125 0.296875 0.25 0.515625q0.171875 0.203125 0.453125 0.3125q0.28125 0.109375 0.703125 0.109375q0.75 0 1.109375 -0.4375q0.375 -0.4375 0.375 -1.25l0 -4.625l0.953125 0l0 4.578125zm11.702087 2.4375l-0.953125 0l0 -3.21875l-2.953125 0l0 3.21875l-0.953125 0l0 -7.015625l0.953125 0l0 2.96875l2.953125 0l0 -2.96875l0.953125 0l0 7.015625zm5.827606 -2.984375q0 0.203125 -0.015625 0.34375q0 0.125 -0.015625 0.25l-3.78125 0q0 0.828125 0.453125 1.265625q0.46875 0.4375 1.34375 0.4375q0.234375 0 0.46875 -0.015625q0.234375 -0.015625 0.453125 -0.046875q0.21875 -0.03125 0.421875 -0.0625q0.203125 -0.046875 0.375 -0.09375l0 0.765625q-0.375 0.109375 -0.859375 0.171875q-0.484375 0.0625 -1.0 0.0625q-0.6875 0 -1.1875 -0.1875q-0.5 -0.1875 -0.828125 -0.546875q-0.3125 -0.359375 -0.46875 -0.875q-0.15625 -0.515625 -0.15625 -1.171875q0 -0.5625 0.15625 -1.0625q0.171875 -0.515625 0.484375 -0.890625q0.3125 -0.390625 0.765625 -0.609375q0.46875 -0.234375 1.046875 -0.234375q0.5625 0 1.0 0.171875q0.4375 0.171875 0.734375 0.5q0.296875 0.328125 0.453125 0.796875q0.15625 0.453125 0.15625 1.03125zm-0.984375 -0.125q0.015625 -0.359375 -0.078125 -0.65625q-0.078125 -0.3125 -0.265625 -0.515625q-0.171875 -0.21875 -0.4375 -0.34375q-0.265625 -0.125 -0.625 -0.125q-0.296875 0 -0.5625 0.125q-0.25 0.125 -0.4375 0.34375q-0.171875 0.203125 -0.28125 0.515625q-0.109375 0.296875 -0.140625 0.65625l2.828125 0zm5.749481 3.109375l-0.03125 -0.71875q-0.4375 0.421875 -0.890625 0.625q-0.453125 0.1875 -0.953125 0.1875q-0.453125 0 -0.78125 -0.109375q-0.328125 -0.125 -0.546875 -0.328125q-0.21875 -0.203125 -0.3125 -0.484375q-0.09375 -0.28125 -0.09375 -0.609375q0 -0.8125 0.59375 -1.265625q0.609375 -0.46875 1.796875 -0.46875l1.109375 0l0 -0.46875q0 -0.484375 -0.3125 -0.765625q-0.296875 -0.28125 -0.921875 -0.28125q-0.453125 0 -0.90625 0.109375q-0.4375 0.09375 -0.90625 0.28125l0 -0.84375q0.171875 -0.0625 0.390625 -0.125q0.21875 -0.0625 0.453125 -0.109375q0.25 -0.0625 0.5 -0.078125q0.265625 -0.03125 0.546875 -0.03125q0.484375 0 0.875 0.109375q0.390625 0.09375 0.65625 0.328125q0.28125 0.21875 0.421875 0.546875q0.140625 0.328125 0.140625 0.78125l0 3.71875l-0.828125 0zm-0.109375 -2.453125l-1.1875 0q-0.34375 0 -0.59375 0.078125q-0.25 0.0625 -0.421875 0.1875q-0.15625 0.125 -0.234375 0.3125q-0.078125 0.171875 -0.078125 0.40625q0 0.15625 0.046875 0.296875q0.046875 0.140625 0.15625 0.25q0.109375 0.109375 0.28125 0.171875q0.171875 0.0625 0.421875 0.0625q0.3125 0 0.734375 -0.1875q0.421875 -0.203125 0.875 -0.625l0 -0.953125zm2.2182312 -0.125q0 -0.6875 0.1875 -1.21875q0.203125 -0.546875 0.546875 -0.90625q0.34375 -0.375 0.828125 -0.5625q0.484375 -0.1875 1.078125 -0.1875q0.265625 0 0.515625 0.03125q0.25 0.03125 0.484375 0.09375l0 -2.265625l0.9375 0l0 7.59375l-0.828125 0l-0.03125 -1.015625q-0.390625 0.5625 -0.859375 0.84375q-0.453125 0.265625 -0.984375 0.265625q-0.453125 0 -0.8125 -0.1875q-0.34375 -0.203125 -0.578125 -0.546875q-0.234375 -0.359375 -0.359375 -0.84375q-0.125 -0.5 -0.125 -1.09375zm0.96875 -0.0625q0 0.96875 0.28125 1.453125q0.28125 0.484375 0.8125 0.484375q0.359375 0 0.75 -0.3125q0.390625 -0.328125 0.828125 -0.9375l0 -2.515625q-0.234375 -0.109375 -0.515625 -0.15625q-0.265625 -0.0625 -0.546875 -0.0625q-0.765625 0 -1.1875 0.5q-0.421875 0.484375 -0.421875 1.546875zm9.733856 -0.34375q0 0.203125 -0.015625 0.34375q0 0.125 -0.015625 0.25l-3.78125 0q0 0.828125 0.453125 1.265625q0.46875 0.4375 1.34375 0.4375q0.234375 0 0.46875 -0.015625q0.234375 -0.015625 0.453125 -0.046875q0.21875 -0.03125 0.421875 -0.0625q0.203125 -0.046875 0.375 -0.09375l0 0.765625q-0.375 0.109375 -0.859375 0.171875q-0.484375 0.0625 -1.0 0.0625q-0.6875 0 -1.1875 -0.1875q-0.5 -0.1875 -0.828125 -0.546875q-0.3125 -0.359375 -0.46875 -0.875q-0.15625 -0.515625 -0.15625 -1.171875q0 -0.5625 0.15625 -1.0625q0.171875 -0.515625 0.484375 -0.890625q0.3125 -0.390625 0.765625 -0.609375q0.46875 -0.234375 1.046875 -0.234375q0.5625 0 1.0 0.171875q0.4375 0.171875 0.734375 0.5q0.296875 0.328125 0.453125 0.796875q0.15625 0.453125 0.15625 1.03125zm-0.984375 -0.125q0.015625 -0.359375 -0.078125 -0.65625q-0.078125 -0.3125 -0.265625 -0.515625q-0.171875 -0.21875 -0.4375 -0.34375q-0.265625 -0.125 -0.625 -0.125q-0.296875 0 -0.5625 0.125q-0.25 0.125 -0.4375 0.34375q-0.171875 0.203125 -0.28125 0.515625q-0.109375 0.296875 -0.140625 0.65625l2.828125 0zm2.4994812 -2.28125l0.859375 0l0.015625 0.984375q0.484375 -0.5625 0.953125 -0.8125q0.46875 -0.265625 0.9375 -0.265625q0.828125 0 1.265625 0.546875q0.4375 0.53125 0.40625 1.609375l-0.953125 0q0.015625 -0.71875 -0.203125 -1.03125q-0.21875 -0.328125 -0.65625 -0.328125q-0.1875 0 -0.375 0.078125q-0.1875 0.0625 -0.390625 0.21875q-0.203125 0.140625 -0.4375 0.375q-0.21875 0.21875 -0.46875 0.546875l0 3.46875l-0.953125 0l0 -5.390625z" fill-rule="nonzero"></path><path fill="#ff0000" d="m342.21915 158.75853l94.17325 0l0 41.448822l-94.17325 0z" fill-rule="evenodd"></path><path stroke="#000000" stroke-width="1.0" stroke-linejoin="round" stroke-linecap="butt" d="m342.21915 158.75853l94.17325 0l0 41.448822l-94.17325 0z" fill-rule="evenodd"></path><path fill="#000000" d="m362.83206 179.66045q0 0.953125 -0.21875 1.640625q-0.21875 0.6875 -0.609375 1.140625q-0.375 0.4375 -0.890625 0.65625q-0.5 0.21875 -1.0625 0.21875q-0.671875 0 -1.171875 -0.234375q-0.5 -0.25 -0.84375 -0.703125q-0.328125 -0.46875 -0.484375 -1.125q-0.15625 -0.671875 -0.15625 -1.5q0 -0.9375 0.21875 -1.625q0.21875 -0.6875 0.59375 -1.140625q0.375 -0.453125 0.875 -0.65625q0.515625 -0.21875 1.078125 -0.21875q0.671875 0 1.171875 0.25q0.515625 0.234375 0.84375 0.703125q0.328125 0.453125 0.484375 1.109375q0.171875 0.65625 0.171875 1.484375zm-0.984375 0.078125q0 -0.625 -0.09375 -1.125q-0.09375 -0.515625 -0.3125 -0.890625q-0.203125 -0.375 -0.546875 -0.578125q-0.328125 -0.203125 -0.78125 -0.203125q-0.453125 0 -0.78125 0.21875q-0.328125 0.21875 -0.546875 0.59375q-0.203125 0.375 -0.3125 0.875q-0.09375 0.5 -0.09375 1.0625q0 0.625 0.09375 1.140625q0.109375 0.515625 0.3125 0.890625q0.203125 0.359375 0.53125 0.5625q0.328125 0.203125 0.796875 0.203125q0.4375 0 0.765625 -0.21875q0.328125 -0.21875 0.546875 -0.59375q0.21875 -0.375 0.3125 -0.875q0.109375 -0.5 0.109375 -1.0625zm6.546356 1.390625q0 0.5 -0.203125 0.890625q-0.1875 0.390625 -0.546875 0.65625q-0.359375 0.265625 -0.875 0.40625q-0.515625 0.140625 -1.140625 0.140625l-1.84375 0l0 -7.015625l2.015625 0q2.34375 0 2.34375 1.703125q0 0.5625 -0.28125 0.984375q-0.265625 0.40625 -0.875 0.59375q0.28125 0.0625 0.53125 0.1875q0.265625 0.125 0.453125 0.328125q0.203125 0.203125 0.3125 0.484375q0.109375 0.28125 0.109375 0.640625zm-1.234375 -3.09375q0 -0.203125 -0.078125 -0.390625q-0.0625 -0.203125 -0.21875 -0.328125q-0.15625 -0.140625 -0.4375 -0.21875q-0.265625 -0.09375 -0.6875 -0.09375l-0.984375 0l0 2.203125l0.953125 0q0.328125 0 0.59375 -0.0625q0.265625 -0.078125 0.453125 -0.21875q0.1875 -0.15625 0.296875 -0.359375q0.109375 -0.21875 0.109375 -0.53125zm0.21875 3.125q0 -0.28125 -0.109375 -0.484375q-0.109375 -0.21875 -0.328125 -0.359375q-0.21875 -0.15625 -0.53125 -0.234375q-0.296875 -0.078125 -0.6875 -0.078125l-0.96875 0l0 2.40625l1.0 0q0.828125 0 1.21875 -0.296875q0.40625 -0.3125 0.40625 -0.953125zm6.890106 -0.375q0 0.578125 -0.171875 1.046875q-0.15625 0.46875 -0.484375 0.796875q-0.3125 0.328125 -0.765625 0.515625q-0.453125 0.171875 -1.0625 0.171875q-0.640625 0 -1.109375 -0.171875q-0.453125 -0.171875 -0.75 -0.484375q-0.28125 -0.3125 -0.421875 -0.75q-0.125 -0.4375 -0.125 -0.984375l0 -4.71875l0.96875 0l0 4.640625q0 0.421875 0.078125 0.734375q0.078125 0.296875 0.25 0.515625q0.171875 0.203125 0.453125 0.3125q0.28125 0.109375 0.703125 0.109375q0.75 0 1.109375 -0.4375q0.375 -0.4375 0.375 -1.25l0 -4.625l0.953125 0l0 4.578125zm11.702087 -2.4375q0 0.4375 -0.15625 0.859375q-0.15625 0.421875 -0.5 0.75q-0.34375 0.328125 -0.875 0.546875q-0.515625 0.203125 -1.25 0.203125l-0.859375 0l0 2.515625l-0.96875 0l0 -7.015625l1.984375 0q0.515625 0 0.984375 0.109375q0.484375 0.109375 0.84375 0.375q0.375 0.25 0.578125 0.671875q0.21875 0.40625 0.21875 0.984375zm-0.984375 0.046875q0 -0.671875 -0.453125 -1.03125q-0.4375 -0.359375 -1.234375 -0.359375l-0.96875 0l0 2.890625l0.890625 0q0.84375 0 1.296875 -0.375q0.46875 -0.375 0.46875 -1.125zm5.718231 4.828125l-0.03125 -0.71875q-0.4375 0.421875 -0.890625 0.625q-0.453125 0.1875 -0.953125 0.1875q-0.453125 0 -0.78125 -0.109375q-0.328125 -0.125 -0.546875 -0.328125q-0.21875 -0.203125 -0.3125 -0.484375q-0.09375 -0.28125 -0.09375 -0.609375q0 -0.8125 0.59375 -1.265625q0.609375 -0.46875 1.796875 -0.46875l1.109375 0l0 -0.46875q0 -0.484375 -0.3125 -0.765625q-0.296875 -0.28125 -0.921875 -0.28125q-0.453125 0 -0.90625 0.109375q-0.4375 0.09375 -0.90625 0.28125l0 -0.84375q0.171875 -0.0625 0.390625 -0.125q0.21875 -0.0625 0.453125 -0.109375q0.25 -0.0625 0.5 -0.078125q0.265625 -0.03125 0.546875 -0.03125q0.484375 0 0.875 0.109375q0.390625 0.09375 0.65625 0.328125q0.28125 0.21875 0.421875 0.546875q0.140625 0.328125 0.140625 0.78125l0 3.71875l-0.828125 0zm-0.109375 -2.453125l-1.1875 0q-0.34375 0 -0.59375 0.078125q-0.25 0.0625 -0.421875 0.1875q-0.15625 0.125 -0.234375 0.3125q-0.078125 0.171875 -0.078125 0.40625q0 0.15625 0.046875 0.296875q0.046875 0.140625 0.15625 0.25q0.109375 0.109375 0.28125 0.171875q0.171875 0.0625 0.421875 0.0625q0.3125 0 0.734375 -0.1875q0.421875 -0.203125 0.875 -0.625l0 -0.953125zm7.296356 -2.9375l-1.84375 4.828125q-0.28125 0.734375 -0.59375 1.265625q-0.296875 0.53125 -0.65625 0.859375q-0.359375 0.34375 -0.796875 0.5q-0.421875 0.171875 -0.953125 0.171875q-0.140625 0 -0.25 -0.015625q-0.109375 0 -0.25 0l0 -0.859375q0.125 0.015625 0.265625 0.03125q0.140625 0.015625 0.296875 0.015625q0.25 0 0.46875 -0.078125q0.234375 -0.078125 0.421875 -0.25q0.203125 -0.15625 0.390625 -0.4375q0.1875 -0.265625 0.359375 -0.640625l-2.15625 -5.390625l1.0625 0l1.359375 3.5625l0.28125 0.84375l0.3125 -0.859375l1.25 -3.546875l1.03125 0zm2.9057312 -1.4375l-1.609375 0l0 -0.765625l2.546875 0l0 6.8125l1.609375 0l0 0.78125l-4.328125 0l0 -0.78125l1.78125 0l0 -6.046875zm8.702606 4.09375q0 0.625 -0.171875 1.15625q-0.171875 0.515625 -0.515625 0.890625q-0.328125 0.375 -0.8125 0.578125q-0.46875 0.203125 -1.078125 0.203125q-0.578125 0 -1.046875 -0.171875q-0.453125 -0.1875 -0.78125 -0.53125q-0.3125 -0.359375 -0.484375 -0.875q-0.15625 -0.515625 -0.15625 -1.1875q0 -0.625 0.171875 -1.140625q0.171875 -0.515625 0.5 -0.890625q0.34375 -0.375 0.8125 -0.578125q0.484375 -0.203125 1.09375 -0.203125q0.578125 0 1.03125 0.1875q0.46875 0.171875 0.78125 0.515625q0.328125 0.34375 0.484375 0.859375q0.171875 0.515625 0.171875 1.1875zm-0.953125 0.03125q0 -0.5 -0.109375 -0.859375q-0.109375 -0.375 -0.3125 -0.625q-0.203125 -0.25 -0.5 -0.375q-0.28125 -0.125 -0.640625 -0.125q-0.421875 0 -0.71875 0.171875q-0.296875 0.15625 -0.5 0.4375q-0.1875 0.265625 -0.28125 0.625q-0.078125 0.359375 -0.078125 0.75q0 0.5 0.109375 0.890625q0.109375 0.375 0.3125 0.625q0.203125 0.234375 0.484375 0.375q0.296875 0.125 0.671875 0.125q0.40625 0 0.703125 -0.15625q0.3125 -0.171875 0.5 -0.4375q0.1875 -0.28125 0.265625 -0.640625q0.09375 -0.375 0.09375 -0.78125zm5.593231 2.703125l-0.03125 -0.71875q-0.4375 0.421875 -0.890625 0.625q-0.453125 0.1875 -0.953125 0.1875q-0.453125 0 -0.78125 -0.109375q-0.328125 -0.125 -0.546875 -0.328125q-0.21875 -0.203125 -0.3125 -0.484375q-0.09375 -0.28125 -0.09375 -0.609375q0 -0.8125 0.59375 -1.265625q0.609375 -0.46875 1.796875 -0.46875l1.109375 0l0 -0.46875q0 -0.484375 -0.3125 -0.765625q-0.296875 -0.28125 -0.921875 -0.28125q-0.453125 0 -0.90625 0.109375q-0.4375 0.09375 -0.90625 0.28125l0 -0.84375q0.171875 -0.0625 0.390625 -0.125q0.21875 -0.0625 0.453125 -0.109375q0.25 -0.0625 0.5 -0.078125q0.265625 -0.03125 0.546875 -0.03125q0.484375 0 0.875 0.109375q0.390625 0.09375 0.65625 0.328125q0.28125 0.21875 0.421875 0.546875q0.140625 0.328125 0.140625 0.78125l0 3.71875l-0.828125 0zm-0.109375 -2.453125l-1.1875 0q-0.34375 0 -0.59375 0.078125q-0.25 0.0625 -0.421875 0.1875q-0.15625 0.125 -0.234375 0.3125q-0.078125 0.171875 -0.078125 0.40625q0 0.15625 0.046875 0.296875q0.046875 0.140625 0.15625 0.25q0.109375 0.109375 0.28125 0.171875q0.171875 0.0625 0.421875 0.0625q0.3125 0 0.734375 -0.1875q0.421875 -0.203125 0.875 -0.625l0 -0.953125zm2.2182312 -0.125q0 -0.6875 0.1875 -1.21875q0.203125 -0.546875 0.546875 -0.90625q0.34375 -0.375 0.828125 -0.5625q0.484375 -0.1875 1.078125 -0.1875q0.265625 0 0.515625 0.03125q0.25 0.03125 0.484375 0.09375l0 -2.265625l0.9375 0l0 7.59375l-0.828125 0l-0.03125 -1.015625q-0.390625 0.5625 -0.859375 0.84375q-0.453125 0.265625 -0.984375 0.265625q-0.453125 0 -0.8125 -0.1875q-0.34375 -0.203125 -0.578125 -0.546875q-0.234375 -0.359375 -0.359375 -0.84375q-0.125 -0.5 -0.125 -1.09375zm0.96875 -0.0625q0 0.96875 0.28125 1.453125q0.28125 0.484375 0.8125 0.484375q0.359375 0 0.75 -0.3125q0.390625 -0.328125 0.828125 -0.9375l0 -2.515625q-0.234375 -0.109375 -0.515625 -0.15625q-0.265625 -0.0625 -0.546875 -0.0625q-0.765625 0 -1.1875 0.5q-0.421875 0.484375 -0.421875 1.546875z" fill-rule="nonzero"></path><path fill="#ff0000" d="m531.82275 158.75853l94.17322 0l0 41.448822l-94.17322 0z" fill-rule="evenodd"></path><path stroke="#000000" stroke-width="1.0" stroke-linejoin="round" stroke-linecap="butt" d="m531.82275 158.75853l94.17322 0l0 41.448822l-94.17322 0z" fill-rule="evenodd"></path><path fill="#000000" d="m552.43567 179.66045q0 0.953125 -0.21875 1.640625q-0.21875 0.6875 -0.609375 1.140625q-0.375 0.4375 -0.890625 0.65625q-0.5 0.21875 -1.0625 0.21875q-0.671875 0 -1.171875 -0.234375q-0.5 -0.25 -0.84375 -0.703125q-0.328125 -0.46875 -0.484375 -1.125q-0.15625 -0.671875 -0.15625 -1.5q0 -0.9375 0.21875 -1.625q0.21875 -0.6875 0.59375 -1.140625q0.375 -0.453125 0.875 -0.65625q0.515625 -0.21875 1.078125 -0.21875q0.671875 0 1.171875 0.25q0.515625 0.234375 0.84375 0.703125q0.328125 0.453125 0.484375 1.109375q0.171875 0.65625 0.171875 1.484375zm-0.984375 0.078125q0 -0.625 -0.09375 -1.125q-0.09375 -0.515625 -0.3125 -0.890625q-0.203125 -0.375 -0.546875 -0.578125q-0.328125 -0.203125 -0.78125 -0.203125q-0.453125 0 -0.78125 0.21875q-0.328125 0.21875 -0.546875 0.59375q-0.203125 0.375 -0.3125 0.875q-0.09375 0.5 -0.09375 1.0625q0 0.625 0.09375 1.140625q0.109375 0.515625 0.3125 0.890625q0.203125 0.359375 0.53125 0.5625q0.328125 0.203125 0.796875 0.203125q0.4375 0 0.765625 -0.21875q0.328125 -0.21875 0.546875 -0.59375q0.21875 -0.375 0.3125 -0.875q0.109375 -0.5 0.109375 -1.0625zm6.5463257 1.390625q0 0.5 -0.203125 0.890625q-0.1875 0.390625 -0.546875 0.65625q-0.359375 0.265625 -0.875 0.40625q-0.515625 0.140625 -1.140625 0.140625l-1.84375 0l0 -7.015625l2.015625 0q2.34375 0 2.34375 1.703125q0 0.5625 -0.28125 0.984375q-0.265625 0.40625 -0.875 0.59375q0.28125 0.0625 0.53125 0.1875q0.265625 0.125 0.453125 0.328125q0.203125 0.203125 0.3125 0.484375q0.109375 0.28125 0.109375 0.640625zm-1.234375 -3.09375q0 -0.203125 -0.078125 -0.390625q-0.0625 -0.203125 -0.21875 -0.328125q-0.15625 -0.140625 -0.4375 -0.21875q-0.265625 -0.09375 -0.6875 -0.09375l-0.984375 0l0 2.203125l0.953125 0q0.328125 0 0.59375 -0.0625q0.265625 -0.078125 0.453125 -0.21875q0.1875 -0.15625 0.296875 -0.359375q0.109375 -0.21875 0.109375 -0.53125zm0.21875 3.125q0 -0.28125 -0.109375 -0.484375q-0.109375 -0.21875 -0.328125 -0.359375q-0.21875 -0.15625 -0.53125 -0.234375q-0.296875 -0.078125 -0.6875 -0.078125l-0.96875 0l0 2.40625l1.0 0q0.828125 0 1.21875 -0.296875q0.40625 -0.3125 0.40625 -0.953125zm6.8901367 -0.375q0 0.578125 -0.171875 1.046875q-0.15625 0.46875 -0.484375 0.796875q-0.3125 0.328125 -0.765625 0.515625q-0.453125 0.171875 -1.0625 0.171875q-0.640625 0 -1.109375 -0.171875q-0.453125 -0.171875 -0.75 -0.484375q-0.28125 -0.3125 -0.421875 -0.75q-0.125 -0.4375 -0.125 -0.984375l0 -4.71875l0.96875 0l0 4.640625q0 0.421875 0.078125 0.734375q0.078125 0.296875 0.25 0.515625q0.171875 0.203125 0.453125 0.3125q0.28125 0.109375 0.703125 0.109375q0.75 0 1.109375 -0.4375q0.375 -0.4375 0.375 -1.25l0 -4.625l0.953125 0l0 4.578125zm11.702087 -2.4375q0 0.4375 -0.15625 0.859375q-0.15625 0.421875 -0.5 0.75q-0.34375 0.328125 -0.875 0.546875q-0.515625 0.203125 -1.25 0.203125l-0.859375 0l0 2.515625l-0.96875 0l0 -7.015625l1.984375 0q0.515625 0 0.984375 0.109375q0.484375 0.109375 0.84375 0.375q0.375 0.25 0.578125 0.671875q0.21875 0.40625 0.21875 0.984375zm-0.984375 0.046875q0 -0.671875 -0.453125 -1.03125q-0.4375 -0.359375 -1.234375 -0.359375l-0.96875 0l0 2.890625l0.890625 0q0.84375 0 1.296875 -0.375q0.46875 -0.375 0.46875 -1.125zm5.7182007 4.828125l-0.03125 -0.71875q-0.4375 0.421875 -0.890625 0.625q-0.453125 0.1875 -0.953125 0.1875q-0.453125 0 -0.78125 -0.109375q-0.328125 -0.125 -0.546875 -0.328125q-0.21875 -0.203125 -0.3125 -0.484375q-0.09375 -0.28125 -0.09375 -0.609375q0 -0.8125 0.59375 -1.265625q0.609375 -0.46875 1.796875 -0.46875l1.109375 0l0 -0.46875q0 -0.484375 -0.3125 -0.765625q-0.296875 -0.28125 -0.921875 -0.28125q-0.453125 0 -0.90625 0.109375q-0.4375 0.09375 -0.90625 0.28125l0 -0.84375q0.171875 -0.0625 0.390625 -0.125q0.21875 -0.0625 0.453125 -0.109375q0.25 -0.0625 0.5 -0.078125q0.265625 -0.03125 0.546875 -0.03125q0.484375 0 0.875 0.109375q0.390625 0.09375 0.65625 0.328125q0.28125 0.21875 0.421875 0.546875q0.140625 0.328125 0.140625 0.78125l0 3.71875l-0.828125 0zm-0.109375 -2.453125l-1.1875 0q-0.34375 0 -0.59375 0.078125q-0.25 0.0625 -0.421875 0.1875q-0.15625 0.125 -0.234375 0.3125q-0.078125 0.171875 -0.078125 0.40625q0 0.15625 0.046875 0.296875q0.046875 0.140625 0.15625 0.25q0.109375 0.109375 0.28125 0.171875q0.171875 0.0625 0.421875 0.0625q0.3125 0 0.734375 -0.1875q0.421875 -0.203125 0.875 -0.625l0 -0.953125zm7.2963867 -2.9375l-1.84375 4.828125q-0.28125 0.734375 -0.59375 1.265625q-0.296875 0.53125 -0.65625 0.859375q-0.359375 0.34375 -0.796875 0.5q-0.421875 0.171875 -0.953125 0.171875q-0.140625 0 -0.25 -0.015625q-0.109375 0 -0.25 0l0 -0.859375q0.125 0.015625 0.265625 0.03125q0.140625 0.015625 0.296875 0.015625q0.25 0 0.46875 -0.078125q0.234375 -0.078125 0.421875 -0.25q0.203125 -0.15625 0.390625 -0.4375q0.1875 -0.265625 0.359375 -0.640625l-2.15625 -5.390625l1.0625 0l1.359375 3.5625l0.28125 0.84375l0.3125 -0.859375l1.25 -3.546875l1.03125 0zm2.9057007 -1.4375l-1.609375 0l0 -0.765625l2.546875 0l0 6.8125l1.609375 0l0 0.78125l-4.328125 0l0 -0.78125l1.78125 0l0 -6.046875zm8.702637 4.09375q0 0.625 -0.171875 1.15625q-0.171875 0.515625 -0.515625 0.890625q-0.328125 0.375 -0.8125 0.578125q-0.46875 0.203125 -1.078125 0.203125q-0.578125 0 -1.046875 -0.171875q-0.453125 -0.1875 -0.78125 -0.53125q-0.3125 -0.359375 -0.484375 -0.875q-0.15625 -0.515625 -0.15625 -1.1875q0 -0.625 0.171875 -1.140625q0.171875 -0.515625 0.5 -0.890625q0.34375 -0.375 0.8125 -0.578125q0.484375 -0.203125 1.09375 -0.203125q0.578125 0 1.03125 0.1875q0.46875 0.171875 0.78125 0.515625q0.328125 0.34375 0.484375 0.859375q0.171875 0.515625 0.171875 1.1875zm-0.953125 0.03125q0 -0.5 -0.109375 -0.859375q-0.109375 -0.375 -0.3125 -0.625q-0.203125 -0.25 -0.5 -0.375q-0.28125 -0.125 -0.640625 -0.125q-0.421875 0 -0.71875 0.171875q-0.296875 0.15625 -0.5 0.4375q-0.1875 0.265625 -0.28125 0.625q-0.078125 0.359375 -0.078125 0.75q0 0.5 0.109375 0.890625q0.109375 0.375 0.3125 0.625q0.203125 0.234375 0.484375 0.375q0.296875 0.125 0.671875 0.125q0.40625 0 0.703125 -0.15625q0.3125 -0.171875 0.5 -0.4375q0.1875 -0.28125 0.265625 -0.640625q0.09375 -0.375 0.09375 -0.78125zm5.5932007 2.703125l-0.03125 -0.71875q-0.4375 0.421875 -0.890625 0.625q-0.453125 0.1875 -0.953125 0.1875q-0.453125 0 -0.78125 -0.109375q-0.328125 -0.125 -0.546875 -0.328125q-0.21875 -0.203125 -0.3125 -0.484375q-0.09375 -0.28125 -0.09375 -0.609375q0 -0.8125 0.59375 -1.265625q0.609375 -0.46875 1.796875 -0.46875l1.109375 0l0 -0.46875q0 -0.484375 -0.3125 -0.765625q-0.296875 -0.28125 -0.921875 -0.28125q-0.453125 0 -0.90625 0.109375q-0.4375 0.09375 -0.90625 0.28125l0 -0.84375q0.171875 -0.0625 0.390625 -0.125q0.21875 -0.0625 0.453125 -0.109375q0.25 -0.0625 0.5 -0.078125q0.265625 -0.03125 0.546875 -0.03125q0.484375 0 0.875 0.109375q0.390625 0.09375 0.65625 0.328125q0.28125 0.21875 0.421875 0.546875q0.140625 0.328125 0.140625 0.78125l0 3.71875l-0.828125 0zm-0.109375 -2.453125l-1.1875 0q-0.34375 0 -0.59375 0.078125q-0.25 0.0625 -0.421875 0.1875q-0.15625 0.125 -0.234375 0.3125q-0.078125 0.171875 -0.078125 0.40625q0 0.15625 0.046875 0.296875q0.046875 0.140625 0.15625 0.25q0.109375 0.109375 0.28125 0.171875q0.171875 0.0625 0.421875 0.0625q0.3125 0 0.734375 -0.1875q0.421875 -0.203125 0.875 -0.625l0 -0.953125zm2.2182617 -0.125q0 -0.6875 0.1875 -1.21875q0.203125 -0.546875 0.546875 -0.90625q0.34375 -0.375 0.828125 -0.5625q0.484375 -0.1875 1.078125 -0.1875q0.265625 0 0.515625 0.03125q0.25 0.03125 0.484375 0.09375l0 -2.265625l0.9375 0l0 7.59375l-0.828125 0l-0.03125 -1.015625q-0.390625 0.5625 -0.859375 0.84375q-0.453125 0.265625 -0.984375 0.265625q-0.453125 0 -0.8125 -0.1875q-0.34375 -0.203125 -0.578125 -0.546875q-0.234375 -0.359375 -0.359375 -0.84375q-0.125 -0.5 -0.125 -1.09375zm0.96875 -0.0625q0 0.96875 0.28125 1.453125q0.28125 0.484375 0.8125 0.484375q0.359375 0 0.75 -0.3125q0.390625 -0.328125 0.828125 -0.9375l0 -2.515625q-0.234375 -0.109375 -0.515625 -0.15625q-0.265625 -0.0625 -0.546875 -0.0625q-0.765625 0 -1.1875 0.5q-0.421875 0.484375 -0.421875 1.546875z" fill-rule="nonzero"></path><path fill="#6aa84f" d="m437.13647 158.75853l94.17322 0l0 41.448822l-94.17322 0z" fill-rule="evenodd"></path><path stroke="#000000" stroke-width="1.0" stroke-linejoin="round" stroke-linecap="butt" d="m437.13647 158.75853l94.17322 0l0 41.448822l-94.17322 0z" fill-rule="evenodd"></path><path fill="#000000" d="m460.6788 179.66045q0 0.953125 -0.21875 1.640625q-0.21875 0.6875 -0.609375 1.140625q-0.375 0.4375 -0.890625 0.65625q-0.5 0.21875 -1.0625 0.21875q-0.671875 0 -1.171875 -0.234375q-0.5 -0.25 -0.84375 -0.703125q-0.328125 -0.46875 -0.484375 -1.125q-0.15625 -0.671875 -0.15625 -1.5q0 -0.9375 0.21875 -1.625q0.21875 -0.6875 0.59375 -1.140625q0.375 -0.453125 0.875 -0.65625q0.515625 -0.21875 1.078125 -0.21875q0.671875 0 1.171875 0.25q0.515625 0.234375 0.84375 0.703125q0.328125 0.453125 0.484375 1.109375q0.171875 0.65625 0.171875 1.484375zm-0.984375 0.078125q0 -0.625 -0.09375 -1.125q-0.09375 -0.515625 -0.3125 -0.890625q-0.203125 -0.375 -0.546875 -0.578125q-0.328125 -0.203125 -0.78125 -0.203125q-0.453125 0 -0.78125 0.21875q-0.328125 0.21875 -0.546875 0.59375q-0.203125 0.375 -0.3125 0.875q-0.09375 0.5 -0.09375 1.0625q0 0.625 0.09375 1.140625q0.109375 0.515625 0.3125 0.890625q0.203125 0.359375 0.53125 0.5625q0.328125 0.203125 0.796875 0.203125q0.4375 0 0.765625 -0.21875q0.328125 -0.21875 0.546875 -0.59375q0.21875 -0.375 0.3125 -0.875q0.109375 -0.5 0.109375 -1.0625zm6.546356 1.390625q0 0.5 -0.203125 0.890625q-0.1875 0.390625 -0.546875 0.65625q-0.359375 0.265625 -0.875 0.40625q-0.515625 0.140625 -1.140625 0.140625l-1.84375 0l0 -7.015625l2.015625 0q2.34375 0 2.34375 1.703125q0 0.5625 -0.28125 0.984375q-0.265625 0.40625 -0.875 0.59375q0.28125 0.0625 0.53125 0.1875q0.265625 0.125 0.453125 0.328125q0.203125 0.203125 0.3125 0.484375q0.109375 0.28125 0.109375 0.640625zm-1.234375 -3.09375q0 -0.203125 -0.078125 -0.390625q-0.0625 -0.203125 -0.21875 -0.328125q-0.15625 -0.140625 -0.4375 -0.21875q-0.265625 -0.09375 -0.6875 -0.09375l-0.984375 0l0 2.203125l0.953125 0q0.328125 0 0.59375 -0.0625q0.265625 -0.078125 0.453125 -0.21875q0.1875 -0.15625 0.296875 -0.359375q0.109375 -0.21875 0.109375 -0.53125zm0.21875 3.125q0 -0.28125 -0.109375 -0.484375q-0.109375 -0.21875 -0.328125 -0.359375q-0.21875 -0.15625 -0.53125 -0.234375q-0.296875 -0.078125 -0.6875 -0.078125l-0.96875 0l0 2.40625l1.0 0q0.828125 0 1.21875 -0.296875q0.40625 -0.3125 0.40625 -0.953125zm6.890106 -0.375q0 0.578125 -0.171875 1.046875q-0.15625 0.46875 -0.484375 0.796875q-0.3125 0.328125 -0.765625 0.515625q-0.453125 0.171875 -1.0625 0.171875q-0.640625 0 -1.109375 -0.171875q-0.453125 -0.171875 -0.75 -0.484375q-0.28125 -0.3125 -0.421875 -0.75q-0.125 -0.4375 -0.125 -0.984375l0 -4.71875l0.96875 0l0 4.640625q0 0.421875 0.078125 0.734375q0.078125 0.296875 0.25 0.515625q0.171875 0.203125 0.453125 0.3125q0.28125 0.109375 0.703125 0.109375q0.75 0 1.109375 -0.4375q0.375 -0.4375 0.375 -1.25l0 -4.625l0.953125 0l0 4.578125zm11.702087 2.4375l-0.953125 0l0 -3.21875l-2.953125 0l0 3.21875l-0.953125 0l0 -7.015625l0.953125 0l0 2.96875l2.953125 0l0 -2.96875l0.953125 0l0 7.015625zm5.827606 -2.984375q0 0.203125 -0.015625 0.34375q0 0.125 -0.015625 0.25l-3.78125 0q0 0.828125 0.453125 1.265625q0.46875 0.4375 1.34375 0.4375q0.234375 0 0.46875 -0.015625q0.234375 -0.015625 0.453125 -0.046875q0.21875 -0.03125 0.421875 -0.0625q0.203125 -0.046875 0.375 -0.09375l0 0.765625q-0.375 0.109375 -0.859375 0.171875q-0.484375 0.0625 -1.0 0.0625q-0.6875 0 -1.1875 -0.1875q-0.5 -0.1875 -0.828125 -0.546875q-0.3125 -0.359375 -0.46875 -0.875q-0.15625 -0.515625 -0.15625 -1.171875q0 -0.5625 0.15625 -1.0625q0.171875 -0.515625 0.484375 -0.890625q0.3125 -0.390625 0.765625 -0.609375q0.46875 -0.234375 1.046875 -0.234375q0.5625 0 1.0 0.171875q0.4375 0.171875 0.734375 0.5q0.296875 0.328125 0.453125 0.796875q0.15625 0.453125 0.15625 1.03125zm-0.984375 -0.125q0.015625 -0.359375 -0.078125 -0.65625q-0.078125 -0.3125 -0.265625 -0.515625q-0.171875 -0.21875 -0.4375 -0.34375q-0.265625 -0.125 -0.625 -0.125q-0.296875 0 -0.5625 0.125q-0.25 0.125 -0.4375 0.34375q-0.171875 0.203125 -0.28125 0.515625q-0.109375 0.296875 -0.140625 0.65625l2.828125 0zm5.749481 3.109375l-0.03125 -0.71875q-0.4375 0.421875 -0.890625 0.625q-0.453125 0.1875 -0.953125 0.1875q-0.453125 0 -0.78125 -0.109375q-0.328125 -0.125 -0.546875 -0.328125q-0.21875 -0.203125 -0.3125 -0.484375q-0.09375 -0.28125 -0.09375 -0.609375q0 -0.8125 0.59375 -1.265625q0.609375 -0.46875 1.796875 -0.46875l1.109375 0l0 -0.46875q0 -0.484375 -0.3125 -0.765625q-0.296875 -0.28125 -0.921875 -0.28125q-0.453125 0 -0.90625 0.109375q-0.4375 0.09375 -0.90625 0.28125l0 -0.84375q0.171875 -0.0625 0.390625 -0.125q0.21875 -0.0625 0.453125 -0.109375q0.25 -0.0625 0.5 -0.078125q0.265625 -0.03125 0.546875 -0.03125q0.484375 0 0.875 0.109375q0.390625 0.09375 0.65625 0.328125q0.28125 0.21875 0.421875 0.546875q0.140625 0.328125 0.140625 0.78125l0 3.71875l-0.828125 0zm-0.109375 -2.453125l-1.1875 0q-0.34375 0 -0.59375 0.078125q-0.25 0.0625 -0.421875 0.1875q-0.15625 0.125 -0.234375 0.3125q-0.078125 0.171875 -0.078125 0.40625q0 0.15625 0.046875 0.296875q0.046875 0.140625 0.15625 0.25q0.109375 0.109375 0.28125 0.171875q0.171875 0.0625 0.421875 0.0625q0.3125 0 0.734375 -0.1875q0.421875 -0.203125 0.875 -0.625l0 -0.953125zm2.2182312 -0.125q0 -0.6875 0.1875 -1.21875q0.203125 -0.546875 0.546875 -0.90625q0.34375 -0.375 0.828125 -0.5625q0.484375 -0.1875 1.078125 -0.1875q0.265625 0 0.515625 0.03125q0.25 0.03125 0.484375 0.09375l0 -2.265625l0.9375 0l0 7.59375l-0.828125 0l-0.03125 -1.015625q-0.390625 0.5625 -0.859375 0.84375q-0.453125 0.265625 -0.984375 0.265625q-0.453125 0 -0.8125 -0.1875q-0.34375 -0.203125 -0.578125 -0.546875q-0.234375 -0.359375 -0.359375 -0.84375q-0.125 -0.5 -0.125 -1.09375zm0.96875 -0.0625q0 0.96875 0.28125 1.453125q0.28125 0.484375 0.8125 0.484375q0.359375 0 0.75 -0.3125q0.390625 -0.328125 0.828125 -0.9375l0 -2.515625q-0.234375 -0.109375 -0.515625 -0.15625q-0.265625 -0.0625 -0.546875 -0.0625q-0.765625 0 -1.1875 0.5q-0.421875 0.484375 -0.421875 1.546875zm9.733856 -0.34375q0 0.203125 -0.015625 0.34375q0 0.125 -0.015625 0.25l-3.78125 0q0 0.828125 0.453125 1.265625q0.46875 0.4375 1.34375 0.4375q0.234375 0 0.46875 -0.015625q0.234375 -0.015625 0.453125 -0.046875q0.21875 -0.03125 0.421875 -0.0625q0.203125 -0.046875 0.375 -0.09375l0 0.765625q-0.375 0.109375 -0.859375 0.171875q-0.484375 0.0625 -1.0 0.0625q-0.6875 0 -1.1875 -0.1875q-0.5 -0.1875 -0.828125 -0.546875q-0.3125 -0.359375 -0.46875 -0.875q-0.15625 -0.515625 -0.15625 -1.171875q0 -0.5625 0.15625 -1.0625q0.171875 -0.515625 0.484375 -0.890625q0.3125 -0.390625 0.765625 -0.609375q0.46875 -0.234375 1.046875 -0.234375q0.5625 0 1.0 0.171875q0.4375 0.171875 0.734375 0.5q0.296875 0.328125 0.453125 0.796875q0.15625 0.453125 0.15625 1.03125zm-0.984375 -0.125q0.015625 -0.359375 -0.078125 -0.65625q-0.078125 -0.3125 -0.265625 -0.515625q-0.171875 -0.21875 -0.4375 -0.34375q-0.265625 -0.125 -0.625 -0.125q-0.296875 0 -0.5625 0.125q-0.25 0.125 -0.4375 0.34375q-0.171875 0.203125 -0.28125 0.515625q-0.109375 0.296875 -0.140625 0.65625l2.828125 0zm2.4994812 -2.28125l0.859375 0l0.015625 0.984375q0.484375 -0.5625 0.953125 -0.8125q0.46875 -0.265625 0.9375 -0.265625q0.828125 0 1.265625 0.546875q0.4375 0.53125 0.40625 1.609375l-0.953125 0q0.015625 -0.71875 -0.203125 -1.03125q-0.21875 -0.328125 -0.65625 -0.328125q-0.1875 0 -0.375 0.078125q-0.1875 0.0625 -0.390625 0.21875q-0.203125 0.140625 -0.4375 0.375q-0.21875 0.21875 -0.46875 0.546875l0 3.46875l-0.953125 0l0 -5.390625z" fill-rule="nonzero"></path><path shape-rendering="crispEdges" fill="#ffff00" d="m151.80052 296.0l95.50131 0l0 40.0l-95.50131 0l0 -40.0z" fill-rule="nonzero"></path><path shape-rendering="crispEdges" fill="#ffff00" d="m151.80052 336.0l95.50131 0l0 40.0l-95.50131 0l0 -40.0z" fill-rule="nonzero"></path><path shape-rendering="crispEdges" fill="#ffff00" d="m151.80052 376.0l95.50131 0l0 40.0l-95.50131 0l0 -40.0z" fill-rule="nonzero"></path><path shape-rendering="crispEdges" fill="#ffff00" d="m151.80052 416.0l95.50131 0l0 40.0l-95.50131 0l0 -40.0z" fill-rule="nonzero"></path><path stroke="#000000" stroke-width="1.0" stroke-linecap="butt" d="m151.80052 295.5013l0 160.99738" fill-rule="nonzero"></path><path stroke="#000000" stroke-width="1.0" stroke-linecap="butt" d="m247.30183 295.5013l0 160.99738" fill-rule="nonzero"></path><path stroke="#000000" stroke-width="1.0" stroke-linecap="butt" d="m151.30183 296.0l96.49869 0" fill-rule="nonzero"></path><path stroke="#000000" stroke-width="1.0" stroke-linecap="butt" d="m151.30183 336.0l96.49869 0" fill-rule="nonzero"></path><path stroke="#000000" stroke-width="1.0" stroke-linecap="butt" d="m151.30183 376.0l96.49869 0" fill-rule="nonzero"></path><path stroke="#000000" stroke-width="1.0" stroke-linecap="butt" d="m151.30183 416.0l96.49869 0" fill-rule="nonzero"></path><path stroke="#000000" stroke-width="1.0" stroke-linecap="butt" d="m151.30183 456.0l96.49869 0" fill-rule="nonzero"></path><path fill="#000000" d="m190.24779 319.47437q-0.84375 0.359375 -1.765625 0.359375q-1.484375 0 -2.28125 -0.890625q-0.796875 -0.890625 -0.796875 -2.640625q0 -0.84375 0.21875 -1.515625q0.21875 -0.6875 0.625 -1.15625q0.40625 -0.484375 0.984375 -0.734375q0.578125 -0.265625 1.296875 -0.265625q0.5 0 0.90625 0.09375q0.421875 0.078125 0.8125 0.25l0 0.9375q-0.375 -0.203125 -0.796875 -0.3125q-0.40625 -0.109375 -0.890625 -0.109375q-0.484375 0 -0.890625 0.1875q-0.390625 0.171875 -0.671875 0.53125q-0.28125 0.34375 -0.4375 0.859375q-0.140625 0.5 -0.140625 1.15625q0 1.359375 0.546875 2.0625q0.546875 0.6875 1.625 0.6875q0.453125 0 0.859375 -0.109375q0.421875 -0.109375 0.796875 -0.296875l0 0.90625zm3.2182312 -6.5625l-1.609375 0l0 -0.765625l2.546875 0l0 6.8125l1.609375 0l0 0.78125l-4.328125 0l0 -0.78125l1.78125 0l0 -6.046875zm8.577606 3.84375q0 0.203125 -0.015625 0.34375q0 0.125 -0.015625 0.25l-3.78125 0q0 0.828125 0.453125 1.265625q0.46875 0.4375 1.34375 0.4375q0.234375 0 0.46875 -0.015625q0.234375 -0.015625 0.453125 -0.046875q0.21875 -0.03125 0.421875 -0.0625q0.203125 -0.046875 0.375 -0.09375l0 0.765625q-0.375 0.109375 -0.859375 0.171875q-0.484375 0.0625 -1.0 0.0625q-0.6875 0 -1.1875 -0.1875q-0.5 -0.1875 -0.828125 -0.546875q-0.3125 -0.359375 -0.46875 -0.875q-0.15625 -0.515625 -0.15625 -1.171875q0 -0.5625 0.15625 -1.0625q0.171875 -0.515625 0.484375 -0.890625q0.3125 -0.390625 0.765625 -0.609375q0.46875 -0.234375 1.046875 -0.234375q0.5625 0 1.0 0.171875q0.4375 0.171875 0.734375 0.5q0.296875 0.328125 0.453125 0.796875q0.15625 0.453125 0.15625 1.03125zm-0.984375 -0.125q0.015625 -0.359375 -0.078125 -0.65625q-0.078125 -0.3125 -0.265625 -0.515625q-0.171875 -0.21875 -0.4375 -0.34375q-0.265625 -0.125 -0.625 -0.125q-0.296875 0 -0.5625 0.125q-0.25 0.125 -0.4375 0.34375q-0.171875 0.203125 -0.28125 0.515625q-0.109375 0.296875 -0.140625 0.65625l2.828125 0zm5.749481 3.109375l-0.03125 -0.71875q-0.4375 0.421875 -0.890625 0.625q-0.453125 0.1875 -0.953125 0.1875q-0.453125 0 -0.78125 -0.109375q-0.328125 -0.125 -0.546875 -0.328125q-0.21875 -0.203125 -0.3125 -0.484375q-0.09375 -0.28125 -0.09375 -0.609375q0 -0.8125 0.59375 -1.265625q0.609375 -0.46875 1.796875 -0.46875l1.109375 0l0 -0.46875q0 -0.484375 -0.3125 -0.765625q-0.296875 -0.28125 -0.921875 -0.28125q-0.453125 0 -0.90625 0.109375q-0.4375 0.09375 -0.90625 0.28125l0 -0.84375q0.171875 -0.0625 0.390625 -0.125q0.21875 -0.0625 0.453125 -0.109375q0.25 -0.0625 0.5 -0.078125q0.265625 -0.03125 0.546875 -0.03125q0.484375 0 0.875 0.109375q0.390625 0.09375 0.65625 0.328125q0.28125 0.21875 0.421875 0.546875q0.140625 0.328125 0.140625 0.78125l0 3.71875l-0.828125 0zm-0.109375 -2.453125l-1.1875 0q-0.34375 0 -0.59375 0.078125q-0.25 0.0625 -0.421875 0.1875q-0.15625 0.125 -0.234375 0.3125q-0.078125 0.171875 -0.078125 0.40625q0 0.15625 0.046875 0.296875q0.046875 0.140625 0.15625 0.25q0.109375 0.109375 0.28125 0.171875q0.171875 0.0625 0.421875 0.0625q0.3125 0 0.734375 -0.1875q0.421875 -0.203125 0.875 -0.625l0 -0.953125zm2.7182312 -2.9375l0.859375 0l0.015625 0.984375q0.484375 -0.5625 0.953125 -0.8125q0.46875 -0.265625 0.9375 -0.265625q0.828125 0 1.265625 0.546875q0.4375 0.53125 0.40625 1.609375l-0.953125 0q0.015625 -0.71875 -0.203125 -1.03125q-0.21875 -0.328125 -0.65625 -0.328125q-0.1875 0 -0.375 0.078125q-0.1875 0.0625 -0.390625 0.21875q-0.203125 0.140625 -0.4375 0.375q-0.21875 0.21875 -0.46875 0.546875l0 3.46875l-0.953125 0l0 -5.390625z" fill-rule="nonzero"></path><path fill="#000000" d="m178.26445 359.74l-4.0 0l0 -7.015625l4.0 0l0 0.796875l-3.046875 0l0 2.171875l2.921875 0l0 0.8125l-2.921875 0l0 2.421875l3.046875 0l0 0.8125zm1.6401062 -5.390625l0.828125 0l0.046875 0.875q0.234375 -0.28125 0.453125 -0.46875q0.21875 -0.1875 0.421875 -0.296875q0.21875 -0.109375 0.4375 -0.15625q0.21875 -0.046875 0.453125 -0.046875q0.84375 0 1.265625 0.5q0.421875 0.484375 0.421875 1.46875l0 3.515625l-0.921875 0l0 -3.4375q0 -0.640625 -0.25 -0.9375q-0.234375 -0.3125 -0.703125 -0.3125q-0.171875 0 -0.34375 0.0625q-0.15625 0.046875 -0.328125 0.171875q-0.171875 0.125 -0.390625 0.34375q-0.203125 0.203125 -0.453125 0.53125l0 3.578125l-0.9375 0l0 -5.390625zm10.046356 5.1875q-0.359375 0.140625 -0.75 0.203125q-0.375 0.078125 -0.796875 0.078125q-1.265625 0 -1.96875 -0.6875q-0.6875 -0.703125 -0.6875 -2.03125q0 -0.640625 0.203125 -1.15625q0.203125 -0.53125 0.5625 -0.890625q0.359375 -0.375 0.859375 -0.578125q0.5 -0.203125 1.09375 -0.203125q0.421875 0 0.78125 0.0625q0.375 0.0625 0.703125 0.1875l0 0.890625q-0.34375 -0.171875 -0.71875 -0.25q-0.359375 -0.09375 -0.734375 -0.09375q-0.359375 0 -0.6875 0.140625q-0.3125 0.125 -0.5625 0.390625q-0.234375 0.25 -0.375 0.625q-0.140625 0.375 -0.140625 0.84375q0 0.96875 0.46875 1.46875q0.484375 0.484375 1.328125 0.484375q0.375 0 0.734375 -0.078125q0.359375 -0.09375 0.6875 -0.265625l0 0.859375zm1.8901062 -5.1875l0.859375 0l0.015625 0.984375q0.484375 -0.5625 0.953125 -0.8125q0.46875 -0.265625 0.9375 -0.265625q0.828125 0 1.265625 0.546875q0.4375 0.53125 0.40625 1.609375l-0.953125 0q0.015625 -0.71875 -0.203125 -1.03125q-0.21875 -0.328125 -0.65625 -0.328125q-0.1875 0 -0.375 0.078125q-0.1875 0.0625 -0.390625 0.21875q-0.203125 0.140625 -0.4375 0.375q-0.21875 0.21875 -0.46875 0.546875l0 3.46875l-0.953125 0l0 -5.390625zm10.436981 0l-1.84375 4.828125q-0.28125 0.734375 -0.59375 1.265625q-0.296875 0.53125 -0.65625 0.859375q-0.359375 0.34375 -0.796875 0.5q-0.421875 0.171875 -0.953125 0.171875q-0.140625 0 -0.25 -0.015625q-0.109375 0 -0.25 0l0 -0.859375q0.125 0.015625 0.265625 0.03125q0.140625 0.015625 0.296875 0.015625q0.25 0 0.46875 -0.078125q0.234375 -0.078125 0.421875 -0.25q0.203125 -0.15625 0.390625 -0.4375q0.1875 -0.265625 0.359375 -0.640625l-2.15625 -5.390625l1.0625 0l1.359375 3.5625l0.28125 0.84375l0.3125 -0.859375l1.25 -3.546875l1.03125 0zm5.671356 2.59375q0 0.71875 -0.203125 1.265625q-0.203125 0.53125 -0.5625 0.890625q-0.34375 0.34375 -0.828125 0.53125q-0.484375 0.171875 -1.046875 0.171875q-0.265625 0 -0.515625 -0.03125q-0.25 -0.015625 -0.515625 -0.078125l0 2.25l-0.9375 0l0 -7.59375l0.828125 0l0.0625 0.90625q0.40625 -0.5625 0.859375 -0.78125q0.453125 -0.21875 0.984375 -0.21875q0.46875 0 0.8125 0.1875q0.359375 0.1875 0.59375 0.546875q0.234375 0.34375 0.34375 0.84375q0.125 0.5 0.125 1.109375zm-0.953125 0.046875q0 -0.421875 -0.0625 -0.78125q-0.0625 -0.359375 -0.203125 -0.609375q-0.125 -0.25 -0.34375 -0.390625q-0.203125 -0.140625 -0.5 -0.140625q-0.171875 0 -0.359375 0.0625q-0.171875 0.046875 -0.375 0.1875q-0.203125 0.125 -0.421875 0.34375q-0.203125 0.21875 -0.453125 0.53125l0 2.625q0.25 0.109375 0.53125 0.171875q0.296875 0.0625 0.5625 0.0625q0.765625 0 1.1875 -0.515625q0.4375 -0.515625 0.4375 -1.546875zm6.546356 2.671875q-0.3125 0.078125 -0.65625 0.109375q-0.328125 0.046875 -0.6875 0.046875q-1.015625 0 -1.515625 -0.453125q-0.5 -0.46875 -0.5 -1.421875l0 -2.8125l-1.5 0l0 -0.78125l1.5 0l0 -1.484375l0.9375 -0.234375l0 1.71875l2.421875 0l0 0.78125l-2.421875 0l0 2.734375q0 0.578125 0.3125 0.875q0.3125 0.28125 0.90625 0.28125q0.265625 0 0.5625 -0.03125q0.3125 -0.046875 0.640625 -0.125l0 0.796875zm6.077606 -2.90625q0 0.203125 -0.015625 0.34375q0 0.125 -0.015625 0.25l-3.78125 0q0 0.828125 0.453125 1.265625q0.46875 0.4375 1.34375 0.4375q0.234375 0 0.46875 -0.015625q0.234375 -0.015625 0.453125 -0.046875q0.21875 -0.03125 0.421875 -0.0625q0.203125 -0.046875 0.375 -0.09375l0 0.765625q-0.375 0.109375 -0.859375 0.171875q-0.484375 0.0625 -1.0 0.0625q-0.6875 0 -1.1875 -0.1875q-0.5 -0.1875 -0.828125 -0.546875q-0.3125 -0.359375 -0.46875 -0.875q-0.15625 -0.515625 -0.15625 -1.171875q0 -0.5625 0.15625 -1.0625q0.171875 -0.515625 0.484375 -0.890625q0.3125 -0.390625 0.765625 -0.609375q0.46875 -0.234375 1.046875 -0.234375q0.5625 0 1.0 0.171875q0.4375 0.171875 0.734375 0.5q0.296875 0.328125 0.453125 0.796875q0.15625 0.453125 0.15625 1.03125zm-0.984375 -0.125q0.015625 -0.359375 -0.078125 -0.65625q-0.078125 -0.3125 -0.265625 -0.515625q-0.171875 -0.21875 -0.4375 -0.34375q-0.265625 -0.125 -0.625 -0.125q-0.296875 0 -0.5625 0.125q-0.25 0.125 -0.4375 0.34375q-0.171875 0.203125 -0.28125 0.515625q-0.109375 0.296875 -0.140625 0.65625l2.828125 0zm1.9994812 0.53125q0 -0.6875 0.1875 -1.21875q0.203125 -0.546875 0.546875 -0.90625q0.34375 -0.375 0.828125 -0.5625q0.484375 -0.1875 1.078125 -0.1875q0.265625 0 0.515625 0.03125q0.25 0.03125 0.484375 0.09375l0 -2.265625l0.9375 0l0 7.59375l-0.828125 0l-0.03125 -1.015625q-0.390625 0.5625 -0.859375 0.84375q-0.453125 0.265625 -0.984375 0.265625q-0.453125 0 -0.8125 -0.1875q-0.34375 -0.203125 -0.578125 -0.546875q-0.234375 -0.359375 -0.359375 -0.84375q-0.125 -0.5 -0.125 -1.09375zm0.96875 -0.0625q0 0.96875 0.28125 1.453125q0.28125 0.484375 0.8125 0.484375q0.359375 0 0.75 -0.3125q0.390625 -0.328125 0.828125 -0.9375l0 -2.515625q-0.234375 -0.109375 -0.515625 -0.15625q-0.265625 -0.0625 -0.546875 -0.0625q-0.765625 0 -1.1875 0.5q-0.421875 0.484375 -0.421875 1.546875z" fill-rule="nonzero"></path><path fill="#000000" d="m190.24779 399.47437q-0.84375 0.359375 -1.765625 0.359375q-1.484375 0 -2.28125 -0.890625q-0.796875 -0.890625 -0.796875 -2.640625q0 -0.84375 0.21875 -1.515625q0.21875 -0.6875 0.625 -1.15625q0.40625 -0.484375 0.984375 -0.734375q0.578125 -0.265625 1.296875 -0.265625q0.5 0 0.90625 0.09375q0.421875 0.078125 0.8125 0.25l0 0.9375q-0.375 -0.203125 -0.796875 -0.3125q-0.40625 -0.109375 -0.890625 -0.109375q-0.484375 0 -0.890625 0.1875q-0.390625 0.171875 -0.671875 0.53125q-0.28125 0.34375 -0.4375 0.859375q-0.140625 0.5 -0.140625 1.15625q0 1.359375 0.546875 2.0625q0.546875 0.6875 1.625 0.6875q0.453125 0 0.859375 -0.109375q0.421875 -0.109375 0.796875 -0.296875l0 0.90625zm3.2182312 -6.5625l-1.609375 0l0 -0.765625l2.546875 0l0 6.8125l1.609375 0l0 0.78125l-4.328125 0l0 -0.78125l1.78125 0l0 -6.046875zm8.577606 3.84375q0 0.203125 -0.015625 0.34375q0 0.125 -0.015625 0.25l-3.78125 0q0 0.828125 0.453125 1.265625q0.46875 0.4375 1.34375 0.4375q0.234375 0 0.46875 -0.015625q0.234375 -0.015625 0.453125 -0.046875q0.21875 -0.03125 0.421875 -0.0625q0.203125 -0.046875 0.375 -0.09375l0 0.765625q-0.375 0.109375 -0.859375 0.171875q-0.484375 0.0625 -1.0 0.0625q-0.6875 0 -1.1875 -0.1875q-0.5 -0.1875 -0.828125 -0.546875q-0.3125 -0.359375 -0.46875 -0.875q-0.15625 -0.515625 -0.15625 -1.171875q0 -0.5625 0.15625 -1.0625q0.171875 -0.515625 0.484375 -0.890625q0.3125 -0.390625 0.765625 -0.609375q0.46875 -0.234375 1.046875 -0.234375q0.5625 0 1.0 0.171875q0.4375 0.171875 0.734375 0.5q0.296875 0.328125 0.453125 0.796875q0.15625 0.453125 0.15625 1.03125zm-0.984375 -0.125q0.015625 -0.359375 -0.078125 -0.65625q-0.078125 -0.3125 -0.265625 -0.515625q-0.171875 -0.21875 -0.4375 -0.34375q-0.265625 -0.125 -0.625 -0.125q-0.296875 0 -0.5625 0.125q-0.25 0.125 -0.4375 0.34375q-0.171875 0.203125 -0.28125 0.515625q-0.109375 0.296875 -0.140625 0.65625l2.828125 0zm5.749481 3.109375l-0.03125 -0.71875q-0.4375 0.421875 -0.890625 0.625q-0.453125 0.1875 -0.953125 0.1875q-0.453125 0 -0.78125 -0.109375q-0.328125 -0.125 -0.546875 -0.328125q-0.21875 -0.203125 -0.3125 -0.484375q-0.09375 -0.28125 -0.09375 -0.609375q0 -0.8125 0.59375 -1.265625q0.609375 -0.46875 1.796875 -0.46875l1.109375 0l0 -0.46875q0 -0.484375 -0.3125 -0.765625q-0.296875 -0.28125 -0.921875 -0.28125q-0.453125 0 -0.90625 0.109375q-0.4375 0.09375 -0.90625 0.28125l0 -0.84375q0.171875 -0.0625 0.390625 -0.125q0.21875 -0.0625 0.453125 -0.109375q0.25 -0.0625 0.5 -0.078125q0.265625 -0.03125 0.546875 -0.03125q0.484375 0 0.875 0.109375q0.390625 0.09375 0.65625 0.328125q0.28125 0.21875 0.421875 0.546875q0.140625 0.328125 0.140625 0.78125l0 3.71875l-0.828125 0zm-0.109375 -2.453125l-1.1875 0q-0.34375 0 -0.59375 0.078125q-0.25 0.0625 -0.421875 0.1875q-0.15625 0.125 -0.234375 0.3125q-0.078125 0.171875 -0.078125 0.40625q0 0.15625 0.046875 0.296875q0.046875 0.140625 0.15625 0.25q0.109375 0.109375 0.28125 0.171875q0.171875 0.0625 0.421875 0.0625q0.3125 0 0.734375 -0.1875q0.421875 -0.203125 0.875 -0.625l0 -0.953125zm2.7182312 -2.9375l0.859375 0l0.015625 0.984375q0.484375 -0.5625 0.953125 -0.8125q0.46875 -0.265625 0.9375 -0.265625q0.828125 0 1.265625 0.546875q0.4375 0.53125 0.40625 1.609375l-0.953125 0q0.015625 -0.71875 -0.203125 -1.03125q-0.21875 -0.328125 -0.65625 -0.328125q-0.1875 0 -0.375 0.078125q-0.1875 0.0625 -0.390625 0.21875q-0.203125 0.140625 -0.4375 0.375q-0.21875 0.21875 -0.46875 0.546875l0 3.46875l-0.953125 0l0 -5.390625z" fill-rule="nonzero"></path><path fill="#000000" d="m178.26445 439.74l-4.0 0l0 -7.015625l4.0 0l0 0.796875l-3.046875 0l0 2.171875l2.921875 0l0 0.8125l-2.921875 0l0 2.421875l3.046875 0l0 0.8125zm1.6401062 -5.390625l0.828125 0l0.046875 0.875q0.234375 -0.28125 0.453125 -0.46875q0.21875 -0.1875 0.421875 -0.296875q0.21875 -0.109375 0.4375 -0.15625q0.21875 -0.046875 0.453125 -0.046875q0.84375 0 1.265625 0.5q0.421875 0.484375 0.421875 1.46875l0 3.515625l-0.921875 0l0 -3.4375q0 -0.640625 -0.25 -0.9375q-0.234375 -0.3125 -0.703125 -0.3125q-0.171875 0 -0.34375 0.0625q-0.15625 0.046875 -0.328125 0.171875q-0.171875 0.125 -0.390625 0.34375q-0.203125 0.203125 -0.453125 0.53125l0 3.578125l-0.9375 0l0 -5.390625zm10.046356 5.1875q-0.359375 0.140625 -0.75 0.203125q-0.375 0.078125 -0.796875 0.078125q-1.265625 0 -1.96875 -0.6875q-0.6875 -0.703125 -0.6875 -2.03125q0 -0.640625 0.203125 -1.15625q0.203125 -0.53125 0.5625 -0.890625q0.359375 -0.375 0.859375 -0.578125q0.5 -0.203125 1.09375 -0.203125q0.421875 0 0.78125 0.0625q0.375 0.0625 0.703125 0.1875l0 0.890625q-0.34375 -0.171875 -0.71875 -0.25q-0.359375 -0.09375 -0.734375 -0.09375q-0.359375 0 -0.6875 0.140625q-0.3125 0.125 -0.5625 0.390625q-0.234375 0.25 -0.375 0.625q-0.140625 0.375 -0.140625 0.84375q0 0.96875 0.46875 1.46875q0.484375 0.484375 1.328125 0.484375q0.375 0 0.734375 -0.078125q0.359375 -0.09375 0.6875 -0.265625l0 0.859375zm1.8901062 -5.1875l0.859375 0l0.015625 0.984375q0.484375 -0.5625 0.953125 -0.8125q0.46875 -0.265625 0.9375 -0.265625q0.828125 0 1.265625 0.546875q0.4375 0.53125 0.40625 1.609375l-0.953125 0q0.015625 -0.71875 -0.203125 -1.03125q-0.21875 -0.328125 -0.65625 -0.328125q-0.1875 0 -0.375 0.078125q-0.1875 0.0625 -0.390625 0.21875q-0.203125 0.140625 -0.4375 0.375q-0.21875 0.21875 -0.46875 0.546875l0 3.46875l-0.953125 0l0 -5.390625zm10.436981 0l-1.84375 4.828125q-0.28125 0.734375 -0.59375 1.265625q-0.296875 0.53125 -0.65625 0.859375q-0.359375 0.34375 -0.796875 0.5q-0.421875 0.171875 -0.953125 0.171875q-0.140625 0 -0.25 -0.015625q-0.109375 0 -0.25 0l0 -0.859375q0.125 0.015625 0.265625 0.03125q0.140625 0.015625 0.296875 0.015625q0.25 0 0.46875 -0.078125q0.234375 -0.078125 0.421875 -0.25q0.203125 -0.15625 0.390625 -0.4375q0.1875 -0.265625 0.359375 -0.640625l-2.15625 -5.390625l1.0625 0l1.359375 3.5625l0.28125 0.84375l0.3125 -0.859375l1.25 -3.546875l1.03125 0zm5.671356 2.59375q0 0.71875 -0.203125 1.265625q-0.203125 0.53125 -0.5625 0.890625q-0.34375 0.34375 -0.828125 0.53125q-0.484375 0.171875 -1.046875 0.171875q-0.265625 0 -0.515625 -0.03125q-0.25 -0.015625 -0.515625 -0.078125l0 2.25l-0.9375 0l0 -7.59375l0.828125 0l0.0625 0.90625q0.40625 -0.5625 0.859375 -0.78125q0.453125 -0.21875 0.984375 -0.21875q0.46875 0 0.8125 0.1875q0.359375 0.1875 0.59375 0.546875q0.234375 0.34375 0.34375 0.84375q0.125 0.5 0.125 1.109375zm-0.953125 0.046875q0 -0.421875 -0.0625 -0.78125q-0.0625 -0.359375 -0.203125 -0.609375q-0.125 -0.25 -0.34375 -0.390625q-0.203125 -0.140625 -0.5 -0.140625q-0.171875 0 -0.359375 0.0625q-0.171875 0.046875 -0.375 0.1875q-0.203125 0.125 -0.421875 0.34375q-0.203125 0.21875 -0.453125 0.53125l0 2.625q0.25 0.109375 0.53125 0.171875q0.296875 0.0625 0.5625 0.0625q0.765625 0 1.1875 -0.515625q0.4375 -0.515625 0.4375 -1.546875zm6.546356 2.671875q-0.3125 0.078125 -0.65625 0.109375q-0.328125 0.046875 -0.6875 0.046875q-1.015625 0 -1.515625 -0.453125q-0.5 -0.46875 -0.5 -1.421875l0 -2.8125l-1.5 0l0 -0.78125l1.5 0l0 -1.484375l0.9375 -0.234375l0 1.71875l2.421875 0l0 0.78125l-2.421875 0l0 2.734375q0 0.578125 0.3125 0.875q0.3125 0.28125 0.90625 0.28125q0.265625 0 0.5625 -0.03125q0.3125 -0.046875 0.640625 -0.125l0 0.796875zm6.077606 -2.90625q0 0.203125 -0.015625 0.34375q0 0.125 -0.015625 0.25l-3.78125 0q0 0.828125 0.453125 1.265625q0.46875 0.4375 1.34375 0.4375q0.234375 0 0.46875 -0.015625q0.234375 -0.015625 0.453125 -0.046875q0.21875 -0.03125 0.421875 -0.0625q0.203125 -0.046875 0.375 -0.09375l0 0.765625q-0.375 0.109375 -0.859375 0.171875q-0.484375 0.0625 -1.0 0.0625q-0.6875 0 -1.1875 -0.1875q-0.5 -0.1875 -0.828125 -0.546875q-0.3125 -0.359375 -0.46875 -0.875q-0.15625 -0.515625 -0.15625 -1.171875q0 -0.5625 0.15625 -1.0625q0.171875 -0.515625 0.484375 -0.890625q0.3125 -0.390625 0.765625 -0.609375q0.46875 -0.234375 1.046875 -0.234375q0.5625 0 1.0 0.171875q0.4375 0.171875 0.734375 0.5q0.296875 0.328125 0.453125 0.796875q0.15625 0.453125 0.15625 1.03125zm-0.984375 -0.125q0.015625 -0.359375 -0.078125 -0.65625q-0.078125 -0.3125 -0.265625 -0.515625q-0.171875 -0.21875 -0.4375 -0.34375q-0.265625 -0.125 -0.625 -0.125q-0.296875 0 -0.5625 0.125q-0.25 0.125 -0.4375 0.34375q-0.171875 0.203125 -0.28125 0.515625q-0.109375 0.296875 -0.140625 0.65625l2.828125 0zm1.9994812 0.53125q0 -0.6875 0.1875 -1.21875q0.203125 -0.546875 0.546875 -0.90625q0.34375 -0.375 0.828125 -0.5625q0.484375 -0.1875 1.078125 -0.1875q0.265625 0 0.515625 0.03125q0.25 0.03125 0.484375 0.09375l0 -2.265625l0.9375 0l0 7.59375l-0.828125 0l-0.03125 -1.015625q-0.390625 0.5625 -0.859375 0.84375q-0.453125 0.265625 -0.984375 0.265625q-0.453125 0 -0.8125 -0.1875q-0.34375 -0.203125 -0.578125 -0.546875q-0.234375 -0.359375 -0.359375 -0.84375q-0.125 -0.5 -0.125 -1.09375zm0.96875 -0.0625q0 0.96875 0.28125 1.453125q0.28125 0.484375 0.8125 0.484375q0.359375 0 0.75 -0.3125q0.390625 -0.328125 0.828125 -0.9375l0 -2.515625q-0.234375 -0.109375 -0.515625 -0.15625q-0.265625 -0.0625 -0.546875 -0.0625q-0.765625 0 -1.1875 0.5q-0.421875 0.484375 -0.421875 1.546875z" fill-rule="nonzero"></path><path fill="#000000" fill-opacity="0.0" d="m248.59317 314.979l47.905518 0" fill-rule="evenodd"></path><path stroke="#000000" stroke-width="1.0" stroke-linejoin="round" stroke-linecap="butt" d="m248.59317 314.979l47.905518 0" fill-rule="evenodd"></path><path fill="#000000" fill-opacity="0.0" d="m296.18372 314.5013l0 -113.79527" fill-rule="evenodd"></path><path stroke="#000000" stroke-width="1.0" stroke-linejoin="round" stroke-linecap="butt" d="m296.18372 314.5013l0 -107.79527" fill-rule="evenodd"></path><path fill="#000000" stroke="#000000" stroke-width="1.0" stroke-linecap="butt" d="m297.83545 206.70604l-1.6517334 -4.538101l-1.6517334 4.538101z" fill-rule="evenodd"></path><path fill="#000000" fill-opacity="0.0" d="m247.50131 355.0l142.01575 0" fill-rule="evenodd"></path><path stroke="#000000" stroke-width="1.0" stroke-linejoin="round" stroke-linecap="butt" d="m247.50131 355.0l142.01575 0" fill-rule="evenodd"></path><path fill="#000000" fill-opacity="0.0" d="m389.3058 355.48294l0 -155.27559" fill-rule="evenodd"></path><path stroke="#000000" stroke-width="1.0" stroke-linejoin="round" stroke-linecap="butt" d="m389.3058 355.48294l0 -149.27559" fill-rule="evenodd"></path><path fill="#000000" stroke="#000000" stroke-width="1.0" stroke-linecap="butt" d="m390.95752 206.20735l-1.6517334 -4.538101l-1.6517334 4.538101z" fill-rule="evenodd"></path><path fill="#000000" fill-opacity="0.0" d="m248.0 396.5013l236.50394 0" fill-rule="evenodd"></path><path stroke="#000000" stroke-width="1.0" stroke-linejoin="round" stroke-linecap="butt" d="m248.0 396.5013l236.50394 0" fill-rule="evenodd"></path><path fill="#000000" fill-opacity="0.0" d="m484.22308 396.99475l0 -196.7874" fill-rule="evenodd"></path><path stroke="#000000" stroke-width="1.0" stroke-linejoin="round" stroke-linecap="butt" d="m484.22308 396.99475l0 -190.7874" fill-rule="evenodd"></path><path fill="#000000" stroke="#000000" stroke-width="1.0" stroke-linecap="butt" d="m485.87482 206.20735l-1.6517334 -4.538101l-1.6517334 4.538101z" fill-rule="evenodd"></path><path fill="#000000" fill-opacity="0.0" d="m578.90936 435.0105l0 -234.80315" fill-rule="evenodd"></path><path stroke="#000000" stroke-width="1.0" stroke-linejoin="round" stroke-linecap="butt" d="m578.90936 435.0105l0 -228.80315" fill-rule="evenodd"></path><path fill="#000000" stroke="#000000" stroke-width="1.0" stroke-linecap="butt" d="m580.5611 206.20735l-1.6517334 -4.538101l-1.6517334 4.538101z" fill-rule="evenodd"></path><path fill="#000000" fill-opacity="0.0" d="m247.50131 435.5013l331.49606 0" fill-rule="evenodd"></path><path stroke="#000000" stroke-width="1.0" stroke-linejoin="round" stroke-linecap="butt" d="m247.50131 435.5013l331.49606 0" fill-rule="evenodd"></path><path fill="#000000" fill-opacity="0.0" d="m139.10959 455.99945c-3.4876556 0 -6.3149567 -6.1035156E-5 -6.3149567 -9.1552734E-5l0 -79.99991c0 -6.1035156E-5 -2.827301 -9.1552734E-5 -6.3149567 -9.1552734E-5l0 0c3.4876556 0 6.3149567 -6.1035156E-5 6.3149567 -1.2207031E-4l0 -79.99979l0 0c0 -3.0517578E-5 0.665329 -6.1035156E-5 1.8496094 -6.1035156E-5c1.1842804 -3.0517578E-5 2.7905273 -3.0517578E-5 4.4653473 -3.0517578E-5z" fill-rule="evenodd"></path><path fill="#000000" fill-opacity="0.0" d="m139.10959 455.99945c-3.4876556 0 -6.3149567 -6.1035156E-5 -6.3149567 -9.1552734E-5l0 -79.99991c0 -6.1035156E-5 -2.827301 -9.1552734E-5 -6.3149567 -9.1552734E-5l0 0c3.4876556 0 6.3149567 -6.1035156E-5 6.3149567 -1.2207031E-4l0 -79.99979l0 0c0 -3.0517578E-5 0.665329 -6.1035156E-5 1.8496094 -6.1035156E-5c1.1842804 -3.0517578E-5 2.7905273 -3.0517578E-5 4.4653473 -3.0517578E-5" fill-rule="evenodd"></path><path stroke="#000000" stroke-width="1.0" stroke-linejoin="round" stroke-linecap="butt" d="m139.10959 455.99945c-3.4876556 0 -6.3149567 -6.1035156E-5 -6.3149567 -9.1552734E-5l0 -79.99991c0 -6.1035156E-5 -2.827301 -9.1552734E-5 -6.3149567 -9.1552734E-5l0 0c3.4876556 0 6.3149567 -6.1035156E-5 6.3149567 -1.2207031E-4l0 -79.99979l0 0c0 -3.0517578E-5 0.665329 -6.1035156E-5 1.8496094 -6.1035156E-5c1.1842804 -3.0517578E-5 2.7905273 -3.0517578E-5 4.4653473 -3.0517578E-5" fill-rule="evenodd"></path><path fill="#efefef" d="m31.963255 333.5013l85.03937 0l0 76.0l-85.03937 0z" fill-rule="evenodd"></path><path stroke="#000000" stroke-width="1.0" stroke-linejoin="round" stroke-linecap="butt" d="m31.963255 333.5013l85.03937 0l0 76.0l-85.03937 0z" fill-rule="evenodd"></path><path fill="#000000" d="m62.265743 360.33505q0 0.5 -0.203125 0.875q-0.203125 0.375 -0.578125 0.625q-0.359375 0.25 -0.875 0.375q-0.515625 0.125 -1.125 0.125q-0.28125 0 -0.5625 -0.03125q-0.28125 -0.015625 -0.53125 -0.046875q-0.25 -0.03125 -0.484375 -0.0625q-0.21875 -0.046875 -0.40625 -0.09375l0 -0.921875q0.40625 0.140625 0.90625 0.234375q0.5 0.078125 1.140625 0.078125q0.46875 0 0.78125 -0.0625q0.328125 -0.078125 0.53125 -0.21875q0.21875 -0.140625 0.3125 -0.34375q0.09375 -0.203125 0.09375 -0.46875q0 -0.28125 -0.15625 -0.484375q-0.15625 -0.203125 -0.421875 -0.359375q-0.25 -0.171875 -0.59375 -0.296875q-0.328125 -0.125 -0.671875 -0.265625q-0.34375 -0.140625 -0.671875 -0.296875q-0.328125 -0.171875 -0.59375 -0.390625q-0.25 -0.234375 -0.40625 -0.53125q-0.15625 -0.296875 -0.15625 -0.71875q0 -0.359375 0.140625 -0.703125q0.15625 -0.34375 0.46875 -0.609375q0.3125 -0.28125 0.8125 -0.4375q0.5 -0.171875 1.1875 -0.171875q0.171875 0 0.375 0.015625q0.21875 0.015625 0.421875 0.046875q0.21875 0.015625 0.421875 0.0625q0.21875 0.03125 0.390625 0.078125l0 0.859375q-0.421875 -0.125 -0.84375 -0.1875q-0.40625 -0.0625 -0.78125 -0.0625q-0.828125 0 -1.21875 0.28125q-0.375 0.28125 -0.375 0.734375q0 0.28125 0.15625 0.484375q0.15625 0.203125 0.40625 0.375q0.265625 0.15625 0.59375 0.296875q0.328125 0.125 0.671875 0.265625q0.34375 0.140625 0.671875 0.3125q0.328125 0.15625 0.578125 0.390625q0.265625 0.21875 0.421875 0.53125q0.171875 0.296875 0.171875 0.71875zm4.82761 1.90625l-0.03125 -0.71875q-0.4375 0.421875 -0.890625 0.625q-0.453125 0.1875 -0.953125 0.1875q-0.453125 0 -0.78125 -0.109375q-0.328125 -0.125 -0.5468788 -0.328125q-0.21875 -0.203125 -0.3125 -0.484375q-0.09375 -0.28125 -0.09375 -0.609375q0 -0.8125 0.5937538 -1.265625q0.609375 -0.46875 1.796875 -0.46875l1.109375 0l0 -0.46875q0 -0.484375 -0.3125 -0.765625q-0.296875 -0.28125 -0.921875 -0.28125q-0.453125 0 -0.90625 0.109375q-0.4375 0.09375 -0.9062538 0.28125l0 -0.84375q0.17187881 -0.0625 0.3906288 -0.125q0.21875 -0.0625 0.453125 -0.109375q0.25 -0.0625 0.5 -0.078125q0.265625 -0.03125 0.546875 -0.03125q0.484375 0 0.875 0.109375q0.390625 0.09375 0.65625 0.328125q0.28125 0.21875 0.421875 0.546875q0.140625 0.328125 0.140625 0.78125l0 3.71875l-0.828125 0zm-0.109375 -2.453125l-1.1875 0q-0.34375 0 -0.59375 0.078125q-0.25 0.0625 -0.421875 0.1875q-0.15625 0.125 -0.234375 0.3125q-0.078125 0.171875 -0.078125 0.40625q0 0.15625 0.046875 0.296875q0.046875 0.140625 0.15625 0.25q0.109375 0.109375 0.28125 0.171875q0.171875 0.0625 0.421875 0.0625q0.3125 0 0.734375 -0.1875q0.421875 -0.203125 0.875 -0.625l0 -0.953125zm6.343231 2.453125l0 -3.875q0 -0.25 -0.015625 -0.40625q-0.015625 -0.171875 -0.0625 -0.265625q-0.03125 -0.09375 -0.09375 -0.125q-0.0625 -0.03125 -0.15625 -0.03125q-0.109375 0 -0.203125 0.0625q-0.09375 0.0625 -0.203125 0.203125q-0.09375 0.140625 -0.21875 0.390625q-0.125 0.234375 -0.296875 0.578125l0 3.46875l-0.859375 0l0 -3.765625q0 -0.296875 -0.015625 -0.484375q-0.015625 -0.1875 -0.0625 -0.28125q-0.046875 -0.109375 -0.109375 -0.140625q-0.0625 -0.03125 -0.15625 -0.03125q-0.09375 0 -0.1875 0.046875q-0.078125 0.046875 -0.1875 0.1875q-0.09375 0.140625 -0.234375 0.390625q-0.125 0.234375 -0.296875 0.609375l0 3.46875l-0.859375 0l0 -5.390625l0.71875 0l0.03125 1.03125q0.140625 -0.3125 0.265625 -0.53125q0.140625 -0.21875 0.28125 -0.34375q0.140625 -0.125 0.296875 -0.1875q0.15625 -0.0625 0.359375 -0.0625q0.4375 0 0.65625 0.28125q0.21875 0.28125 0.21875 0.875q0.140625 -0.28125 0.265625 -0.484375q0.125 -0.21875 0.265625 -0.359375q0.140625 -0.15625 0.3125 -0.234375q0.171875 -0.078125 0.390625 -0.078125q1.015625 0 1.015625 1.5625l0 3.921875l-0.859375 0zm6.624481 -2.796875q0 0.71875 -0.203125 1.265625q-0.203125 0.53125 -0.5625 0.890625q-0.34375 0.34375 -0.828125 0.53125q-0.484375 0.171875 -1.046875 0.171875q-0.265625 0 -0.515625 -0.03125q-0.25 -0.015625 -0.515625 -0.078125l0 2.25l-0.9375 0l0 -7.59375l0.828125 0l0.0625 0.90625q0.40625 -0.5625 0.859375 -0.78125q0.453125 -0.21875 0.984375 -0.21875q0.46875 0 0.8125 0.1875q0.359375 0.1875 0.59375 0.546875q0.234375 0.34375 0.34375 0.84375q0.125 0.5 0.125 1.109375zm-0.953125 0.046875q0 -0.421875 -0.0625 -0.78125q-0.0625 -0.359375 -0.203125 -0.609375q-0.125 -0.25 -0.34375 -0.390625q-0.203125 -0.140625 -0.5 -0.140625q-0.171875 0 -0.359375 0.0625q-0.171875 0.046875 -0.375 0.1875q-0.203125 0.125 -0.421875 0.34375q-0.203125 0.21875 -0.453125 0.53125l0 2.625q0.25 0.109375 0.53125 0.171875q0.296875 0.0625 0.5625 0.0625q0.765625 0 1.1875 -0.515625q0.4375 -0.515625 0.4375 -1.546875zm4.046356 -4.078125l-1.609375 0l0 -0.765625l2.546875 0l0 6.8125l1.609375 0l0 0.78125l-4.328125 0l0 -0.78125l1.78125 0l0 -6.046875zm8.577606 3.84375q0 0.203125 -0.015625 0.34375q0 0.125 -0.015625 0.25l-3.78125 0q0 0.828125 0.453125 1.265625q0.46875 0.4375 1.34375 0.4375q0.234375 0 0.46875 -0.015625q0.234375 -0.015625 0.453125 -0.046875q0.21875 -0.03125 0.421875 -0.0625q0.203125 -0.046875 0.375 -0.09375l0 0.765625q-0.375 0.109375 -0.859375 0.171875q-0.484375 0.0625 -1.0 0.0625q-0.6875 0 -1.1875 -0.1875q-0.5 -0.1875 -0.828125 -0.546875q-0.3125 -0.359375 -0.46875 -0.875q-0.15625 -0.515625 -0.15625 -1.171875q0 -0.5625 0.15625 -1.0625q0.171875 -0.515625 0.484375 -0.890625q0.3125 -0.390625 0.765625 -0.609375q0.46875 -0.234375 1.046875 -0.234375q0.5625 0 1.0 0.171875q0.4375 0.171875 0.734375 0.5q0.296875 0.328125 0.453125 0.796875q0.15625 0.453125 0.15625 1.03125zm-0.984375 -0.125q0.015625 -0.359375 -0.078125 -0.65625q-0.078125 -0.3125 -0.265625 -0.515625q-0.171875 -0.21875 -0.4375 -0.34375q-0.265625 -0.125 -0.625 -0.125q-0.296875 0 -0.5625 0.125q-0.25 0.125 -0.4375 0.34375q-0.171875 0.203125 -0.28125 0.515625q-0.109375 0.296875 -0.140625 0.65625l2.828125 0z" fill-rule="nonzero"></path><path fill="#000000" d="m54.118084 375.2413l-1.046875 0l-0.484375 -1.53125l-2.921875 0l-0.5 1.53125l-1.0 0l2.34375 -7.015625l1.3125 0l2.296875 7.015625zm-1.8125 -2.390625l-1.1875 -3.75l-1.1875 3.75l2.375 0zm6.858856 2.390625l-0.828125 0l-0.03125 -0.875q-0.25 0.28125 -0.46875 0.46875q-0.21875 0.1875 -0.4375 0.296875q-0.203125 0.109375 -0.421875 0.15625q-0.21875 0.046875 -0.453125 0.046875q-0.84375 0 -1.265625 -0.484375q-0.421875 -0.484375 -0.421875 -1.484375l0 -3.515625l0.9375 0l0 3.453125q0 1.234375 0.9375 1.234375q0.171875 0 0.328125 -0.046875q0.171875 -0.0625 0.34375 -0.1875q0.1875 -0.125 0.390625 -0.328125q0.203125 -0.21875 0.46875 -0.546875l0 -3.578125l0.921875 0l0 5.390625zm6.39011 0l-1.234375 0l-1.4531288 -2.0625l-1.453125 2.0625l-1.203125 0l2.09375 -2.703125l-2.0 -2.6875l1.203125 0l1.421875 2.078125l1.3906288 -2.078125l1.15625 0l-2.0312538 2.703125l2.1093788 2.6875zm2.8432312 -4.625l-1.609375 0l0 -0.765625l2.546875 0l0 4.609375l1.609375 0l0 0.78125l-4.328125 0l0 -0.78125l1.78125 0l0 -3.84375zm0.328125 -3.03125q0.15625 0 0.28125 0.0625q0.140625 0.046875 0.234375 0.15625q0.09375 0.09375 0.15625 0.234375q0.0625 0.125 0.0625 0.28125q0 0.15625 -0.0625 0.296875q-0.0625 0.125 -0.15625 0.234375q-0.09375 0.09375 -0.234375 0.15625q-0.125 0.046875 -0.28125 0.046875q-0.15625 0 -0.296875 -0.046875q-0.140625 -0.0625 -0.234375 -0.15625q-0.09375 -0.109375 -0.15625 -0.234375q-0.0625 -0.140625 -0.0625 -0.296875q0 -0.15625 0.0625 -0.28125q0.0625 -0.140625 0.15625 -0.234375q0.09375 -0.109375 0.234375 -0.15625q0.140625 -0.0625 0.296875 -0.0625zm5.530731 0.828125l-1.609375 0l0 -0.765625l2.546875 0l0 6.8125l1.609375 0l0 0.78125l-4.328125 0l0 -0.78125l1.78125 0l0 -6.046875zm5.858856 2.203125l-1.609375 0l0 -0.765625l2.546875 0l0 4.609375l1.609375 0l0 0.78125l-4.328125 0l0 -0.78125l1.78125 0l0 -3.84375zm0.328125 -3.03125q0.15625 0 0.28125 0.0625q0.140625 0.046875 0.234375 0.15625q0.09375 0.09375 0.15625 0.234375q0.0625 0.125 0.0625 0.28125q0 0.15625 -0.0625 0.296875q-0.0625 0.125 -0.15625 0.234375q-0.09375 0.09375 -0.234375 0.15625q-0.125 0.046875 -0.28125 0.046875q-0.15625 0 -0.296875 -0.046875q-0.140625 -0.0625 -0.234375 -0.15625q-0.09375 -0.109375 -0.15625 -0.234375q-0.0625 -0.140625 -0.0625 -0.296875q0 -0.15625 0.0625 -0.28125q0.0625 -0.140625 0.15625 -0.234375q0.09375 -0.109375 0.234375 -0.15625q0.140625 -0.0625 0.296875 -0.0625zm7.155731 7.65625l-0.03125 -0.71875q-0.4375 0.421875 -0.890625 0.625q-0.453125 0.1875 -0.953125 0.1875q-0.453125 0 -0.78125 -0.109375q-0.328125 -0.125 -0.546875 -0.328125q-0.21875 -0.203125 -0.3125 -0.484375q-0.09375 -0.28125 -0.09375 -0.609375q0 -0.8125 0.59375 -1.265625q0.609375 -0.46875 1.796875 -0.46875l1.109375 0l0 -0.46875q0 -0.484375 -0.3125 -0.765625q-0.296875 -0.28125 -0.921875 -0.28125q-0.453125 0 -0.90625 0.109375q-0.4375 0.09375 -0.90625 0.28125l0 -0.84375q0.171875 -0.0625 0.390625 -0.125q0.21875 -0.0625 0.453125 -0.109375q0.25 -0.0625 0.5 -0.078125q0.265625 -0.03125 0.546875 -0.03125q0.484375 0 0.875 0.109375q0.390625 0.09375 0.65625 0.328125q0.28125 0.21875 0.421875 0.546875q0.140625 0.328125 0.140625 0.78125l0 3.71875l-0.828125 0zm-0.109375 -2.453125l-1.1875 0q-0.34375 0 -0.59375 0.078125q-0.25 0.0625 -0.421875 0.1875q-0.15625 0.125 -0.234375 0.3125q-0.078125 0.171875 -0.078125 0.40625q0 0.15625 0.046875 0.296875q0.046875 0.140625 0.15625 0.25q0.109375 0.109375 0.28125 0.171875q0.171875 0.0625 0.421875 0.0625q0.3125 0 0.734375 -0.1875q0.421875 -0.203125 0.875 -0.625l0 -0.953125zm2.7182312 -2.9375l0.859375 0l0.015625 0.984375q0.484375 -0.5625 0.953125 -0.8125q0.46875 -0.265625 0.9375 -0.265625q0.828125 0 1.265625 0.546875q0.4375 0.53125 0.40625 1.609375l-0.953125 0q0.015625 -0.71875 -0.203125 -1.03125q-0.21875 -0.328125 -0.65625 -0.328125q-0.1875 0 -0.375 0.078125q-0.1875 0.0625 -0.390625 0.21875q-0.203125 0.140625 -0.4375 0.375q-0.21875 0.21875 -0.46875 0.546875l0 3.46875l-0.953125 0l0 -5.390625zm10.436981 0l-1.84375 4.828125q-0.28125 0.734375 -0.59375 1.265625q-0.296875 0.53125 -0.65625 0.859375q-0.359375 0.34375 -0.796875 0.5q-0.421875 0.171875 -0.953125 0.171875q-0.140625 0 -0.25 -0.015625q-0.109375 0 -0.25 0l0 -0.859375q0.125 0.015625 0.265625 0.03125q0.140625 0.015625 0.296875 0.015625q0.25 0 0.46875 -0.078125q0.234375 -0.078125 0.421875 -0.25q0.203125 -0.15625 0.390625 -0.4375q0.1875 -0.265625 0.359375 -0.640625l-2.15625 -5.390625l1.0625 0l1.359375 3.5625l0.28125 0.84375l0.3125 -0.859375l1.25 -3.546875l1.03125 0z" fill-rule="nonzero"></path><path fill="#000000" d="m44.806103 382.02255l-1.625 0l0 -0.796875l4.203125 0l0 0.796875l-1.625 0l0 5.40625l1.625 0l0 0.8125l-4.203125 0l0 -0.8125l1.625 0l0 -5.40625zm4.171356 0.828125l0.828125 0l0.046875 0.875q0.234375 -0.28125 0.453125 -0.46875q0.21875 -0.1875 0.421875 -0.296875q0.21875 -0.109375 0.4375 -0.15625q0.21875 -0.046875 0.453125 -0.046875q0.84375 0 1.265625 0.5q0.421875 0.484375 0.421875 1.46875l0 3.515625l-0.921875 0l0 -3.4375q0 -0.640625 -0.25 -0.9375q-0.234375 -0.3125 -0.703125 -0.3125q-0.171875 0 -0.34375 0.0625q-0.15625 0.046875 -0.328125 0.171875q-0.171875 0.125 -0.390625 0.34375q-0.203125 0.203125 -0.453125 0.53125l0 3.578125l-0.9375 0l0 -5.390625zm10.640106 -1.328125q-0.734375 -0.15625 -1.265625 -0.15625q-1.265625 0 -1.265625 1.328125l0 0.9375l2.375 0l0 0.78125l-2.375 0l0 3.828125l-0.9375 0l0 -3.828125l-1.734375 0l0 -0.78125l1.734375 0l0 -0.890625q0 -2.15625 2.234375 -2.15625q0.5625 0 1.234375 0.125l0 0.8125zm-5.640625 1.328125l0 0zm11.405735 2.65625q0 0.625 -0.171875 1.15625q-0.171875 0.515625 -0.515625 0.890625q-0.328125 0.375 -0.8125038 0.578125q-0.46875 0.203125 -1.078125 0.203125q-0.578125 0 -1.046875 -0.171875q-0.453125 -0.1875 -0.78125 -0.53125q-0.3125 -0.359375 -0.484375 -0.875q-0.15625 -0.515625 -0.15625 -1.1875q0 -0.625 0.171875 -1.140625q0.171875 -0.515625 0.5 -0.890625q0.34375 -0.375 0.8125 -0.578125q0.484375 -0.203125 1.09375 -0.203125q0.578125 0 1.03125 0.1875q0.4687538 0.171875 0.7812538 0.515625q0.328125 0.34375 0.484375 0.859375q0.171875 0.515625 0.171875 1.1875zm-0.953125 0.03125q0 -0.5 -0.109375 -0.859375q-0.109375 -0.375 -0.3125 -0.625q-0.20312881 -0.25 -0.5000038 -0.375q-0.28125 -0.125 -0.640625 -0.125q-0.421875 0 -0.71875 0.171875q-0.296875 0.15625 -0.5 0.4375q-0.1875 0.265625 -0.28125 0.625q-0.078125 0.359375 -0.078125 0.75q0 0.5 0.109375 0.890625q0.109375 0.375 0.3125 0.625q0.203125 0.234375 0.484375 0.375q0.296875 0.125 0.671875 0.125q0.40625 0 0.703125 -0.15625q0.3125 -0.171875 0.5000038 -0.4375q0.1875 -0.28125 0.265625 -0.640625q0.09375 -0.375 0.09375 -0.78125zm2.3432312 -2.6875l0.859375 0l0.015625 0.984375q0.484375 -0.5625 0.953125 -0.8125q0.46875 -0.265625 0.9375 -0.265625q0.828125 0 1.265625 0.546875q0.4375 0.53125 0.40625 1.609375l-0.953125 0q0.015625 -0.71875 -0.203125 -1.03125q-0.21875 -0.328125 -0.65625 -0.328125q-0.1875 0 -0.375 0.078125q-0.1875 0.0625 -0.390625 0.21875q-0.203125 0.140625 -0.4375 0.375q-0.21875 0.21875 -0.46875 0.546875l0 3.46875l-0.953125 0l0 -5.390625zm9.483856 5.390625l0 -3.875q0 -0.25 -0.015625 -0.40625q-0.015625 -0.171875 -0.0625 -0.265625q-0.03125 -0.09375 -0.09375 -0.125q-0.0625 -0.03125 -0.15625 -0.03125q-0.109375 0 -0.203125 0.0625q-0.09375 0.0625 -0.203125 0.203125q-0.09375 0.140625 -0.21875 0.390625q-0.125 0.234375 -0.296875 0.578125l0 3.46875l-0.859375 0l0 -3.765625q0 -0.296875 -0.015625 -0.484375q-0.015625 -0.1875 -0.0625 -0.28125q-0.046875 -0.109375 -0.109375 -0.140625q-0.0625 -0.03125 -0.15625 -0.03125q-0.09375 0 -0.1875 0.046875q-0.078125 0.046875 -0.1875 0.1875q-0.09375 0.140625 -0.234375 0.390625q-0.125 0.234375 -0.296875 0.609375l0 3.46875l-0.859375 0l0 -5.390625l0.71875 0l0.03125 1.03125q0.140625 -0.3125 0.265625 -0.53125q0.140625 -0.21875 0.28125 -0.34375q0.140625 -0.125 0.296875 -0.1875q0.15625 -0.0625 0.359375 -0.0625q0.4375 0 0.65625 0.28125q0.21875 0.28125 0.21875 0.875q0.140625 -0.28125 0.265625 -0.484375q0.125 -0.21875 0.265625 -0.359375q0.140625 -0.15625 0.3125 -0.234375q0.171875 -0.078125 0.390625 -0.078125q1.015625 0 1.015625 1.5625l0 3.921875l-0.859375 0zm5.483856 0l-0.03125 -0.71875q-0.4375 0.421875 -0.890625 0.625q-0.453125 0.1875 -0.953125 0.1875q-0.453125 0 -0.78125 -0.109375q-0.328125 -0.125 -0.546875 -0.328125q-0.21875 -0.203125 -0.3125 -0.484375q-0.09375 -0.28125 -0.09375 -0.609375q0 -0.8125 0.59375 -1.265625q0.609375 -0.46875 1.796875 -0.46875l1.109375 0l0 -0.46875q0 -0.484375 -0.3125 -0.765625q-0.296875 -0.28125 -0.921875 -0.28125q-0.453125 0 -0.90625 0.109375q-0.4375 0.09375 -0.90625 0.28125l0 -0.84375q0.171875 -0.0625 0.390625 -0.125q0.21875 -0.0625 0.453125 -0.109375q0.25 -0.0625 0.5 -0.078125q0.265625 -0.03125 0.546875 -0.03125q0.484375 0 0.875 0.109375q0.390625 0.09375 0.65625 0.328125q0.28125 0.21875 0.421875 0.546875q0.140625 0.328125 0.140625 0.78125l0 3.71875l-0.828125 0zm-0.109375 -2.453125l-1.1875 0q-0.34375 0 -0.59375 0.078125q-0.25 0.0625 -0.421875 0.1875q-0.15625 0.125 -0.234375 0.3125q-0.078125 0.171875 -0.078125 0.40625q0 0.15625 0.046875 0.296875q0.046875 0.140625 0.15625 0.25q0.109375 0.109375 0.28125 0.171875q0.171875 0.0625 0.421875 0.0625q0.3125 0 0.734375 -0.1875q0.421875 -0.203125 0.875 -0.625l0 -0.953125zm6.843231 2.375q-0.3125 0.078125 -0.65625 0.109375q-0.328125 0.046875 -0.6875 0.046875q-1.015625 0 -1.515625 -0.453125q-0.5 -0.46875 -0.5 -1.421875l0 -2.8125l-1.5 0l0 -0.78125l1.5 0l0 -1.484375l0.9375 -0.234375l0 1.71875l2.421875 0l0 0.78125l-2.421875 0l0 2.734375q0 0.578125 0.3125 0.875q0.3125 0.28125 0.90625 0.28125q0.265625 0 0.5625 -0.03125q0.3125 -0.046875 0.640625 -0.125l0 0.796875zm3.3588562 -4.546875l-1.609375 0l0 -0.765625l2.546875 0l0 4.609375l1.609375 0l0 0.78125l-4.328125 0l0 -0.78125l1.78125 0l0 -3.84375zm0.328125 -3.03125q0.15625 0 0.28125 0.0625q0.140625 0.046875 0.234375 0.15625q0.09375 0.09375 0.15625 0.234375q0.0625 0.125 0.0625 0.28125q0 0.15625 -0.0625 0.296875q-0.0625 0.125 -0.15625 0.234375q-0.09375 0.09375 -0.234375 0.15625q-0.125 0.046875 -0.28125 0.046875q-0.15625 0 -0.296875 -0.046875q-0.140625 -0.0625 -0.234375 -0.15625q-0.09375 -0.109375 -0.15625 -0.234375q-0.0625 -0.140625 -0.0625 -0.296875q0 -0.15625 0.0625 -0.28125q0.0625 -0.140625 0.15625 -0.234375q0.09375 -0.109375 0.234375 -0.15625q0.140625 -0.0625 0.296875 -0.0625zm8.374481 4.921875q0 0.625 -0.171875 1.15625q-0.171875 0.515625 -0.515625 0.890625q-0.328125 0.375 -0.8125 0.578125q-0.46875 0.203125 -1.078125 0.203125q-0.578125 0 -1.046875 -0.171875q-0.453125 -0.1875 -0.78125 -0.53125q-0.3125 -0.359375 -0.484375 -0.875q-0.15625 -0.515625 -0.15625 -1.1875q0 -0.625 0.171875 -1.140625q0.171875 -0.515625 0.5 -0.890625q0.34375 -0.375 0.8125 -0.578125q0.484375 -0.203125 1.09375 -0.203125q0.578125 0 1.03125 0.1875q0.46875 0.171875 0.78125 0.515625q0.328125 0.34375 0.484375 0.859375q0.171875 0.515625 0.171875 1.1875zm-0.953125 0.03125q0 -0.5 -0.109375 -0.859375q-0.109375 -0.375 -0.3125 -0.625q-0.203125 -0.25 -0.5 -0.375q-0.28125 -0.125 -0.640625 -0.125q-0.421875 0 -0.71875 0.171875q-0.296875 0.15625 -0.5 0.4375q-0.1875 0.265625 -0.28125 0.625q-0.078125 0.359375 -0.078125 0.75q0 0.5 0.109375 0.890625q0.109375 0.375 0.3125 0.625q0.203125 0.234375 0.484375 0.375q0.296875 0.125 0.671875 0.125q0.40625 0 0.703125 -0.15625q0.3125 -0.171875 0.5 -0.4375q0.1875 -0.28125 0.265625 -0.640625q0.09375 -0.375 0.09375 -0.78125zm2.1244812 -2.6875l0.828125 0l0.046875 0.875q0.234375 -0.28125 0.453125 -0.46875q0.21875 -0.1875 0.421875 -0.296875q0.21875 -0.109375 0.4375 -0.15625q0.21875 -0.046875 0.453125 -0.046875q0.84375 0 1.265625 0.5q0.421875 0.484375 0.421875 1.46875l0 3.515625l-0.921875 0l0 -3.4375q0 -0.640625 -0.25 -0.9375q-0.234375 -0.3125 -0.703125 -0.3125q-0.171875 0 -0.34375 0.0625q-0.15625 0.046875 -0.328125 0.171875q-0.171875 0.125 -0.390625 0.34375q-0.203125 0.203125 -0.453125 0.53125l0 3.578125l-0.9375 0l0 -5.390625z" fill-rule="nonzero"></path></g></svg>

